<svg xmlns="http://www.w3.org/2000/svg" viewBox="0 0 200 200">
  <circle cx="100" cy="100" r="96" fill="white" stroke="#00a651" stroke-width="12"/>
  <!-- Cyclist (left side) -->
  <circle cx="58" cy="58" r="10" fill="#222"/>
  <line x1="58" y1="68" x2="58" y2="95" stroke="#222" stroke-width="4" stroke-linecap="round"/>
  <line x1="58" y1="80" x2="72" y2="90" stroke="#222" stroke-width="4" stroke-linecap="round"/>
  <circle cx="42" cy="128" r="16" fill="none" stroke="#222" stroke-width="4"/>
  <circle cx="74" cy="128" r="16" fill="none" stroke="#222" stroke-width="4"/>
  <line x1="42" y1="128" x2="58" y2="95" stroke="#222" stroke-width="4" stroke-linecap="round"/>
  <line x1="58" y1="95" x2="74" y2="128" stroke="#222" stroke-width="4" stroke-linecap="round"/>
  <line x1="58" y1="95" x2="65" y2="128" stroke="#222" stroke-width="4" stroke-linecap="round"/>
  <line x1="72" y1="88" x2="80" y2="82" stroke="#222" stroke-width="4" stroke-linecap="round"/>
  <line x1="72" y1="88" x2="80" y2="94" stroke="#222" stroke-width="4" stroke-linecap="round"/>
  <!-- Pedestrian (right side) -->
  <circle cx="142" cy="58" r="10" fill="#222"/>
  <line x1="142" y1="68" x2="142" y2="110" stroke="#222" stroke-width="4" stroke-linecap="round"/>
  <line x1="142" y1="80" x2="130" y2="96" stroke="#222" stroke-width="4" stroke-linecap="round"/>
  <line x1="142" y1="80" x2="154" y2="93" stroke="#222" stroke-width="4" stroke-linecap="round"/>
  <line x1="142" y1="110" x2="132" y2="142" stroke="#222" stroke-width="4" stroke-linecap="round"/>
  <line x1="142" y1="110" x2="152" y2="140" stroke="#222" stroke-width="4" stroke-linecap="round"/>
</svg>
