<svg xmlns="http://www.w3.org/2000/svg" xmlns:xlink="http://www.w3.org/1999/xlink" width="750" zoomAndPan="magnify" viewBox="0 0 562.5 562.499982" height="750" preserveAspectRatio="xMidYMid meet" version="1.0"><defs><clipPath id="24e525f698"><path d="M 21 55.652344 L 541 55.652344 L 541 506.347656 L 21 506.347656 Z M 21 55.652344 " clip-rule="nonzero"/></clipPath><clipPath id="767de1f957"><path d="M 69.507812 506.148438 L 21.09375 422.09375 L 232.535156 55.78125 L 329.597656 55.78125 L 540.886719 422.09375 L 492.316406 506.148438 Z M 69.507812 506.148438 " clip-rule="nonzero"/></clipPath><clipPath id="8cb7954b51"><path d="M 0 0.652344 L 519.960938 0.652344 L 519.960938 451.191406 L 0 451.191406 Z M 0 0.652344 " clip-rule="nonzero"/></clipPath><clipPath id="b8aff6a658"><path d="M 48.507812 451.148438 L 0.09375 367.09375 L 211.535156 0.78125 L 308.597656 0.78125 L 519.886719 367.09375 L 471.316406 451.148438 Z M 48.507812 451.148438 " clip-rule="nonzero"/></clipPath><clipPath id="d90386ba19"><rect x="0" width="520" y="0" height="452"/></clipPath><clipPath id="c1d4a06356"><path d="M 20 54 L 543 54 L 543 508 L 20 508 Z M 20 54 " clip-rule="nonzero"/></clipPath><clipPath id="04572171ed"><path d="M 232.535156 54.859375 L 330.136719 54.859375 L 330.445312 55.320312 L 541.734375 421.632812 L 542.039062 422.09375 L 541.734375 422.554688 L 493.164062 506.6875 L 492.855469 507.148438 L 68.96875 507.148438 L 68.664062 506.6875 L 20.324219 422.632812 L 20.015625 422.09375 L 20.324219 421.632812 L 231.6875 55.320312 L 231.996094 54.859375 L 232.535156 54.859375 M 232.535156 56.78125 L 232.535156 55.78125 L 233.382812 56.246094 L 21.941406 422.632812 L 21.09375 422.171875 L 21.941406 421.707031 L 70.355469 505.761719 L 69.507812 506.222656 L 69.507812 505.300781 L 492.316406 505.300781 L 492.316406 506.222656 L 491.46875 505.761719 L 540.039062 421.707031 L 540.886719 422.171875 L 540.039062 422.632812 L 328.828125 56.320312 L 329.675781 55.859375 L 329.675781 56.78125 Z M 232.535156 56.78125 " clip-rule="nonzero"/></clipPath><clipPath id="5e98874bf4"><path d="M 0 0.671875 L 522.15625 0.671875 L 522.15625 453.148438 L 0 453.148438 Z M 0 0.671875 " clip-rule="nonzero"/></clipPath><clipPath id="a6b76ff8b6"><path d="M 212.535156 0.859375 L 310.136719 0.859375 L 310.445312 1.320312 L 521.734375 367.632812 L 522.039062 368.09375 L 521.734375 368.554688 L 473.164062 452.6875 L 472.855469 453.148438 L 48.96875 453.148438 L 48.664062 452.6875 L 0.324219 368.632812 L 0.015625 368.09375 L 0.324219 367.632812 L 211.6875 1.320312 L 211.996094 0.859375 L 212.535156 0.859375 M 212.535156 2.78125 L 212.535156 1.78125 L 213.382812 2.246094 L 1.941406 368.632812 L 1.09375 368.171875 L 1.941406 367.707031 L 50.355469 451.761719 L 49.507812 452.222656 L 49.507812 451.300781 L 472.316406 451.300781 L 472.316406 452.222656 L 471.46875 451.761719 L 520.039062 367.707031 L 520.886719 368.171875 L 520.039062 368.632812 L 308.828125 2.320312 L 309.675781 1.859375 L 309.675781 2.78125 Z M 212.535156 2.78125 " clip-rule="nonzero"/></clipPath><clipPath id="3627a26c80"><rect x="0" width="523" y="0" height="454"/></clipPath><clipPath id="b59f4b17fd"><path d="M 45.621094 56 L 516.988281 56 L 516.988281 465 L 45.621094 465 Z M 45.621094 56 " clip-rule="nonzero"/></clipPath><clipPath id="09a7fb9dc6"><path d="M 45.878906 464.429688 L 281.105469 56.9375 L 516.101562 464.429688 Z M 45.878906 464.429688 " clip-rule="nonzero"/></clipPath><clipPath id="c4b5c0b550"><path d="M 0.800781 0.828125 L 471.261719 0.828125 L 471.261719 408.46875 L 0.800781 408.46875 Z M 0.800781 0.828125 " clip-rule="nonzero"/></clipPath><clipPath id="22614bbc6d"><path d="M 0.878906 408.429688 L 236.105469 0.9375 L 471.101562 408.429688 Z M 0.878906 408.429688 " clip-rule="nonzero"/></clipPath><clipPath id="f382ae561b"><rect x="0" width="472" y="0" height="409"/></clipPath><clipPath id="fa55338907"><path d="M 44 55 L 518 55 L 518 466 L 44 466 Z M 44 55 " clip-rule="nonzero"/></clipPath><clipPath id="6e87f8a248"><path d="M 281.875 56.476562 L 516.949219 463.890625 L 517.792969 465.351562 L 44.183594 465.351562 L 45.03125 463.890625 L 280.257812 56.476562 L 281.105469 55.011719 L 281.953125 56.476562 M 280.257812 57.398438 L 281.105469 56.9375 L 281.953125 57.398438 L 46.726562 464.890625 L 45.878906 464.429688 L 45.878906 463.503906 L 516.101562 463.503906 L 516.101562 464.429688 L 515.253906 464.890625 Z M 280.257812 57.398438 " clip-rule="nonzero"/></clipPath><clipPath id="8785dbffdf"><path d="M 0.121094 0 L 473.941406 0 L 473.941406 410.425781 L 0.121094 410.425781 Z M 0.121094 0 " clip-rule="nonzero"/></clipPath><clipPath id="73f55ac73f"><path d="M 237.875 1.476562 L 472.949219 408.890625 L 473.792969 410.351562 L 0.183594 410.351562 L 1.03125 408.890625 L 236.257812 1.476562 L 237.105469 0.0117188 L 237.953125 1.476562 M 236.257812 2.398438 L 237.105469 1.9375 L 237.953125 2.398438 L 2.726562 409.890625 L 1.878906 409.429688 L 1.878906 408.503906 L 472.101562 408.503906 L 472.101562 409.429688 L 471.253906 409.890625 Z M 236.257812 2.398438 " clip-rule="nonzero"/></clipPath><clipPath id="7bd05e78ce"><rect x="0" width="474" y="0" height="411"/></clipPath></defs><g clip-path="url(#24e525f698)"><g clip-path="url(#767de1f957)"><g transform="matrix(1, 0, 0, 1, 21, 55)"><g clip-path="url(#d90386ba19)"><g clip-path="url(#8cb7954b51)"><g clip-path="url(#b8aff6a658)"><rect x="-144.75" width="810" fill="#ff0d0a" height="809.999974" y="-178.749996" fill-opacity="1"/></g></g></g></g></g></g><g clip-path="url(#c1d4a06356)"><g clip-path="url(#04572171ed)"><g transform="matrix(1, 0, 0, 1, 20, 54)"><g clip-path="url(#3627a26c80)"><g clip-path="url(#5e98874bf4)"><g clip-path="url(#a6b76ff8b6)"><rect x="-143.75" width="810" fill="#ff0d0a" height="809.999974" y="-177.749996" fill-opacity="1"/></g></g></g></g></g></g><g clip-path="url(#b59f4b17fd)"><g clip-path="url(#09a7fb9dc6)"><g transform="matrix(1, 0, 0, 1, 45, 56)"><g clip-path="url(#f382ae561b)"><g clip-path="url(#c4b5c0b550)"><g clip-path="url(#22614bbc6d)"><rect x="-168.75" width="810" fill="#ff7021" height="809.999974" y="-179.749996" fill-opacity="1"/></g></g></g></g></g></g><g clip-path="url(#fa55338907)"><g clip-path="url(#6e87f8a248)"><g transform="matrix(1, 0, 0, 1, 44, 55)"><g clip-path="url(#7bd05e78ce)"><g clip-path="url(#8785dbffdf)"><g clip-path="url(#73f55ac73f)"><rect x="-167.75" width="810" fill="#ff7021" height="809.999974" y="-178.749996" fill-opacity="1"/></g></g></g></g></g></g></svg>