<svg xmlns="http://www.w3.org/2000/svg" xmlns:xlink="http://www.w3.org/1999/xlink" width="750" zoomAndPan="magnify" viewBox="0 0 562.5 562.499982" height="750" preserveAspectRatio="xMidYMid meet" version="1.0"><defs><clipPath id="b5576eafdd"><path d="M 189 5.199219 L 373 5.199219 L 373 557 L 189 557 Z M 189 5.199219 " clip-rule="nonzero"/></clipPath><clipPath id="d190cf5d35"><path d="M 212.429688 556.425781 L 207.753906 555.890625 L 203.390625 554.589844 L 199.40625 552.445312 L 196.035156 549.609375 L 193.203125 546.085938 L 191.058594 542.257812 L 189.757812 537.890625 L 189.144531 533.066406 L 189.144531 28.9375 L 189.679688 24.265625 L 190.980469 19.746094 L 193.125 15.917969 L 195.960938 12.394531 L 199.332031 9.558594 L 203.3125 7.414062 L 207.679688 6.113281 L 212.351562 5.578125 L 349.605469 5.578125 L 354.277344 6.113281 L 358.644531 7.414062 L 362.625 9.558594 L 365.996094 12.394531 L 368.832031 15.917969 L 370.976562 19.746094 L 372.277344 24.265625 L 372.8125 28.9375 L 372.8125 533.066406 L 372.277344 537.890625 L 370.976562 542.257812 L 368.832031 546.085938 L 365.996094 549.609375 L 362.625 552.445312 L 358.644531 554.589844 L 354.277344 555.890625 L 349.605469 556.425781 Z M 212.429688 556.425781 " clip-rule="nonzero"/></clipPath><clipPath id="eeea3b0000"><path d="M 0 0.515625 L 183.867188 0.515625 L 183.867188 551.546875 L 0 551.546875 Z M 0 0.515625 " clip-rule="nonzero"/></clipPath><clipPath id="69ff7ffc5b"><path d="M 23.429688 551.425781 L 18.753906 550.890625 L 14.390625 549.589844 L 10.40625 547.445312 L 7.035156 544.609375 L 4.203125 541.085938 L 2.058594 537.257812 L 0.757812 532.890625 L 0.144531 528.066406 L 0.144531 23.9375 L 0.679688 19.265625 L 1.980469 14.746094 L 4.125 10.917969 L 6.960938 7.394531 L 10.332031 4.558594 L 14.3125 2.414062 L 18.679688 1.113281 L 23.351562 0.578125 L 160.605469 0.578125 L 165.277344 1.113281 L 169.644531 2.414062 L 173.625 4.558594 L 176.996094 7.394531 L 179.832031 10.917969 L 181.976562 14.746094 L 183.277344 19.265625 L 183.8125 23.9375 L 183.8125 528.066406 L 183.277344 532.890625 L 181.976562 537.257812 L 179.832031 541.085938 L 176.996094 544.609375 L 173.625 547.445312 L 169.644531 549.589844 L 165.277344 550.890625 L 160.605469 551.425781 Z M 23.429688 551.425781 " clip-rule="nonzero"/></clipPath><clipPath id="1312b24e95"><rect x="0" width="184" y="0" height="552"/></clipPath><clipPath id="1800d0309f"><path d="M 188 4.171875 L 374 4.171875 L 374 558 L 188 558 Z M 188 4.171875 " clip-rule="nonzero"/></clipPath><clipPath id="558c6944f0"><path d="M 212.429688 4.582031 L 349.757812 4.582031 L 354.429688 5.117188 L 354.585938 5.117188 L 358.949219 6.417969 L 359.027344 6.417969 L 359.101562 6.496094 L 363.085938 8.640625 L 363.238281 8.792969 L 366.609375 11.628906 L 366.6875 11.703125 L 366.761719 11.78125 L 369.597656 15.304688 L 369.75 15.457031 L 371.894531 19.285156 L 371.972656 19.363281 L 371.972656 19.441406 L 373.273438 23.960938 L 373.273438 24.113281 L 373.808594 28.785156 L 373.808594 533.21875 L 373.273438 538.042969 L 373.273438 538.199219 L 371.972656 542.5625 L 371.972656 542.640625 L 371.894531 542.71875 L 369.75 546.546875 L 369.671875 546.621094 L 369.597656 546.699219 L 366.761719 550.222656 L 366.6875 550.300781 L 366.609375 550.375 L 363.238281 553.210938 L 363.085938 553.363281 L 359.101562 555.507812 L 359.027344 555.585938 L 358.949219 555.585938 L 354.585938 556.886719 L 354.429688 556.886719 L 349.757812 557.421875 L 212.273438 557.421875 L 207.601562 556.886719 L 207.449219 556.886719 L 203.082031 555.585938 L 203.007812 555.585938 L 202.929688 555.507812 L 198.949219 553.363281 L 198.871094 553.285156 L 198.792969 553.210938 L 195.425781 550.375 L 195.347656 550.300781 L 195.269531 550.222656 L 192.4375 546.699219 L 192.285156 546.546875 L 190.140625 542.71875 L 190.0625 542.640625 L 190.0625 542.5625 L 188.761719 538.199219 L 188.761719 538.042969 L 188.222656 533.144531 L 188.222656 28.785156 L 188.761719 24.113281 L 188.761719 23.960938 L 190.0625 19.441406 L 190.0625 19.363281 L 190.140625 19.285156 L 192.285156 15.457031 L 192.359375 15.378906 L 192.4375 15.304688 L 195.269531 11.78125 L 195.347656 11.703125 L 195.425781 11.628906 L 198.792969 8.792969 L 198.871094 8.71875 L 198.949219 8.640625 L 202.929688 6.496094 L 203.007812 6.417969 L 203.082031 6.417969 L 207.449219 5.117188 L 207.601562 5.117188 L 212.273438 4.582031 L 212.429688 4.582031 M 212.429688 6.496094 L 212.429688 5.5 L 212.503906 6.417969 L 207.832031 6.957031 L 207.753906 6.035156 L 208.0625 6.957031 L 203.695312 8.257812 L 203.390625 7.339844 L 203.847656 8.179688 L 199.867188 10.324219 L 199.40625 9.484375 L 200.019531 10.25 L 196.648438 13.082031 L 196.035156 12.316406 L 196.804688 12.929688 L 193.96875 16.453125 L 193.203125 15.839844 L 194.046875 16.300781 L 191.902344 20.128906 L 191.058594 19.671875 L 191.976562 19.976562 L 190.675781 24.496094 L 189.757812 24.1875 L 190.675781 24.265625 L 190.140625 28.9375 L 189.21875 28.859375 L 190.140625 28.859375 L 190.140625 533.066406 L 189.144531 533.066406 L 190.0625 532.988281 L 190.597656 537.816406 L 189.679688 537.890625 L 190.597656 537.585938 L 191.902344 541.949219 L 190.980469 542.257812 L 191.824219 541.796875 L 193.96875 545.628906 L 193.125 546.085938 L 193.890625 545.472656 L 196.726562 548.996094 L 195.960938 549.609375 L 196.574219 548.84375 L 199.941406 551.679688 L 199.332031 552.445312 L 199.789062 551.601562 L 203.773438 553.746094 L 203.3125 554.589844 L 203.621094 553.667969 L 207.984375 554.972656 L 207.679688 555.890625 L 207.753906 554.972656 L 212.429688 555.507812 L 212.351562 556.425781 L 212.351562 555.507812 L 349.605469 555.507812 L 349.605469 556.425781 L 349.527344 555.507812 L 354.203125 554.972656 L 354.277344 555.890625 L 353.972656 554.972656 L 358.335938 553.667969 L 358.644531 554.589844 L 358.183594 553.746094 L 362.167969 551.601562 L 362.625 552.445312 L 362.015625 551.679688 L 365.382812 548.84375 L 365.996094 549.609375 L 365.230469 548.996094 L 368.066406 545.472656 L 368.832031 546.085938 L 367.988281 545.628906 L 370.132812 541.796875 L 370.976562 542.257812 L 370.054688 541.949219 L 371.359375 537.585938 L 372.277344 537.890625 L 371.359375 537.816406 L 371.894531 532.988281 L 372.8125 533.066406 L 371.894531 533.066406 L 371.894531 28.9375 L 372.8125 28.9375 L 371.894531 29.015625 L 371.359375 24.34375 L 372.277344 24.265625 L 371.359375 24.570312 L 370.054688 20.054688 L 370.976562 19.746094 L 370.132812 20.207031 L 367.988281 16.375 L 368.832031 15.917969 L 368.066406 16.53125 L 365.230469 13.007812 L 365.996094 12.394531 L 365.382812 13.160156 L 362.015625 10.324219 L 362.625 9.558594 L 362.167969 10.402344 L 358.183594 8.257812 L 358.644531 7.414062 L 358.335938 8.335938 L 353.972656 7.03125 L 354.277344 6.113281 L 354.203125 7.03125 L 349.527344 6.496094 L 349.605469 5.578125 L 349.605469 6.496094 Z M 212.429688 6.496094 " clip-rule="nonzero"/></clipPath><clipPath id="88affa1ce1"><path d="M 0 0.554688 L 185.828125 0.554688 L 185.828125 553.503906 L 0 553.503906 Z M 0 0.554688 " clip-rule="nonzero"/></clipPath><clipPath id="cd830cd1d2"><path d="M 24.429688 0.582031 L 161.757812 0.582031 L 166.429688 1.117188 L 166.585938 1.117188 L 170.949219 2.417969 L 171.027344 2.417969 L 171.101562 2.496094 L 175.085938 4.640625 L 175.238281 4.792969 L 178.609375 7.628906 L 178.6875 7.703125 L 178.761719 7.78125 L 181.597656 11.304688 L 181.75 11.457031 L 183.894531 15.285156 L 183.972656 15.363281 L 183.972656 15.441406 L 185.273438 19.960938 L 185.273438 20.113281 L 185.808594 24.785156 L 185.808594 529.21875 L 185.273438 534.042969 L 185.273438 534.199219 L 183.972656 538.5625 L 183.972656 538.640625 L 183.894531 538.71875 L 181.75 542.546875 L 181.671875 542.621094 L 181.597656 542.699219 L 178.761719 546.222656 L 178.6875 546.300781 L 178.609375 546.375 L 175.238281 549.210938 L 175.085938 549.363281 L 171.101562 551.507812 L 171.027344 551.585938 L 170.949219 551.585938 L 166.585938 552.886719 L 166.429688 552.886719 L 161.757812 553.421875 L 24.273438 553.421875 L 19.601562 552.886719 L 19.449219 552.886719 L 15.082031 551.585938 L 15.007812 551.585938 L 14.929688 551.507812 L 10.949219 549.363281 L 10.871094 549.285156 L 10.792969 549.210938 L 7.425781 546.375 L 7.347656 546.300781 L 7.269531 546.222656 L 4.4375 542.699219 L 4.285156 542.546875 L 2.140625 538.71875 L 2.0625 538.640625 L 2.0625 538.5625 L 0.761719 534.199219 L 0.761719 534.042969 L 0.222656 529.144531 L 0.222656 24.785156 L 0.761719 20.113281 L 0.761719 19.960938 L 2.0625 15.441406 L 2.0625 15.363281 L 2.140625 15.285156 L 4.285156 11.457031 L 4.359375 11.378906 L 4.4375 11.304688 L 7.269531 7.78125 L 7.347656 7.703125 L 7.425781 7.628906 L 10.792969 4.792969 L 10.871094 4.71875 L 10.949219 4.640625 L 14.929688 2.496094 L 15.007812 2.417969 L 15.082031 2.417969 L 19.449219 1.117188 L 19.601562 1.117188 L 24.273438 0.582031 L 24.429688 0.582031 M 24.429688 2.496094 L 24.429688 1.5 L 24.503906 2.417969 L 19.832031 2.957031 L 19.753906 2.035156 L 20.0625 2.957031 L 15.695312 4.257812 L 15.390625 3.339844 L 15.847656 4.179688 L 11.867188 6.324219 L 11.40625 5.484375 L 12.019531 6.25 L 8.648438 9.082031 L 8.035156 8.316406 L 8.804688 8.929688 L 5.96875 12.453125 L 5.203125 11.839844 L 6.046875 12.300781 L 3.902344 16.128906 L 3.058594 15.671875 L 3.976562 15.976562 L 2.675781 20.496094 L 1.757812 20.1875 L 2.675781 20.265625 L 2.140625 24.9375 L 1.21875 24.859375 L 2.140625 24.859375 L 2.140625 529.066406 L 1.144531 529.066406 L 2.0625 528.988281 L 2.597656 533.816406 L 1.679688 533.890625 L 2.597656 533.585938 L 3.902344 537.949219 L 2.980469 538.257812 L 3.824219 537.796875 L 5.96875 541.628906 L 5.125 542.085938 L 5.890625 541.472656 L 8.726562 544.996094 L 7.960938 545.609375 L 8.574219 544.84375 L 11.941406 547.679688 L 11.332031 548.445312 L 11.789062 547.601562 L 15.773438 549.746094 L 15.3125 550.589844 L 15.621094 549.667969 L 19.984375 550.972656 L 19.679688 551.890625 L 19.753906 550.972656 L 24.429688 551.507812 L 24.351562 552.425781 L 24.351562 551.507812 L 161.605469 551.507812 L 161.605469 552.425781 L 161.527344 551.507812 L 166.203125 550.972656 L 166.277344 551.890625 L 165.972656 550.972656 L 170.335938 549.667969 L 170.644531 550.589844 L 170.183594 549.746094 L 174.167969 547.601562 L 174.625 548.445312 L 174.015625 547.679688 L 177.382812 544.84375 L 177.996094 545.609375 L 177.230469 544.996094 L 180.066406 541.472656 L 180.832031 542.085938 L 179.988281 541.628906 L 182.132812 537.796875 L 182.976562 538.257812 L 182.054688 537.949219 L 183.359375 533.585938 L 184.277344 533.890625 L 183.359375 533.816406 L 183.894531 528.988281 L 184.8125 529.066406 L 183.894531 529.066406 L 183.894531 24.9375 L 184.8125 24.9375 L 183.894531 25.015625 L 183.359375 20.34375 L 184.277344 20.265625 L 183.359375 20.570312 L 182.054688 16.054688 L 182.976562 15.746094 L 182.132812 16.207031 L 179.988281 12.375 L 180.832031 11.917969 L 180.066406 12.53125 L 177.230469 9.007812 L 177.996094 8.394531 L 177.382812 9.160156 L 174.015625 6.324219 L 174.625 5.558594 L 174.167969 6.402344 L 170.183594 4.257812 L 170.644531 3.414062 L 170.335938 4.335938 L 165.972656 3.03125 L 166.277344 2.113281 L 166.203125 3.03125 L 161.527344 2.496094 L 161.605469 1.578125 L 161.605469 2.496094 Z M 24.429688 2.496094 " clip-rule="nonzero"/></clipPath><clipPath id="d60a1eb9f6"><rect x="0" width="186" y="0" height="554"/></clipPath><clipPath id="a7e8427b56"><path d="M 189.863281 64 L 372 64 L 372 332.878906 L 189.863281 332.878906 Z M 189.863281 64 " clip-rule="nonzero"/></clipPath><clipPath id="ce544f52e5"><path d="M 189.984375 245.847656 L 371.972656 64.015625 L 371.972656 150.488281 L 189.984375 332.546875 Z M 189.984375 245.847656 " clip-rule="nonzero"/></clipPath><clipPath id="cb070adf32"><path d="M 0.910156 0 L 183 0 L 183 268.585938 L 0.910156 268.585938 Z M 0.910156 0 " clip-rule="nonzero"/></clipPath><clipPath id="5cda6eedc7"><path d="M 0.984375 181.847656 L 182.972656 0.015625 L 182.972656 86.488281 L 0.984375 268.546875 Z M 0.984375 181.847656 " clip-rule="nonzero"/></clipPath><clipPath id="c6a088fc55"><rect x="0" width="183" y="0" height="269"/></clipPath><clipPath id="44d3485e5f"><path d="M 189 61.515625 L 373 61.515625 L 373 334.925781 L 189 334.925781 Z M 189 61.515625 " clip-rule="nonzero"/></clipPath><clipPath id="78f7913ce0"><path d="M 372.964844 64.015625 L 372.964844 150.871094 L 372.660156 151.179688 L 190.675781 333.160156 L 189.066406 334.769531 L 189.066406 245.464844 L 189.375 245.15625 L 371.28125 63.328125 L 372.890625 61.71875 L 372.890625 64.015625 M 370.976562 64.015625 L 371.894531 64.015625 L 372.582031 64.707031 L 190.675781 246.535156 L 189.984375 245.847656 L 190.90625 245.847656 L 190.90625 332.546875 L 189.984375 332.546875 L 189.296875 331.859375 L 371.28125 149.800781 L 371.972656 150.488281 L 371.050781 150.488281 L 371.050781 64.015625 Z M 370.976562 64.015625 " clip-rule="nonzero"/></clipPath><clipPath id="76a5977e6f"><path d="M 0 0.625 L 184 0.625 L 184 273.925781 L 0 273.925781 Z M 0 0.625 " clip-rule="nonzero"/></clipPath><clipPath id="169b98970f"><path d="M 183.964844 3.015625 L 183.964844 89.871094 L 183.660156 90.179688 L 1.675781 272.160156 L 0.0664062 273.769531 L 0.0664062 184.464844 L 0.375 184.15625 L 182.28125 2.328125 L 183.890625 0.71875 L 183.890625 3.015625 M 181.976562 3.015625 L 182.894531 3.015625 L 183.582031 3.707031 L 1.675781 185.535156 L 0.984375 184.847656 L 1.90625 184.847656 L 1.90625 271.546875 L 0.984375 271.546875 L 0.296875 270.859375 L 182.28125 88.800781 L 182.972656 89.488281 L 182.050781 89.488281 L 182.050781 3.015625 Z M 181.976562 3.015625 " clip-rule="nonzero"/></clipPath><clipPath id="4d6eee2b11"><rect x="0" width="184" y="0" height="274"/></clipPath><clipPath id="46a130fb51"><path d="M 189.863281 6.222656 L 342 6.222656 L 342 160.84375 L 189.863281 160.84375 Z M 189.863281 6.222656 " clip-rule="nonzero"/></clipPath><clipPath id="f4e53e82f5"><path d="M 189.984375 73.667969 L 256.316406 6.574219 L 341.871094 6.574219 L 189.984375 160.371094 Z M 189.984375 73.667969 " clip-rule="nonzero"/></clipPath><clipPath id="10c3907f6e"><path d="M 0.910156 0.472656 L 152.9375 0.472656 L 152.9375 154.417969 L 0.910156 154.417969 Z M 0.910156 0.472656 " clip-rule="nonzero"/></clipPath><clipPath id="658c26c23f"><path d="M 0.984375 67.667969 L 67.316406 0.574219 L 152.871094 0.574219 L 0.984375 154.371094 Z M 0.984375 67.667969 " clip-rule="nonzero"/></clipPath><clipPath id="7260755dc4"><rect x="0" width="153" y="0" height="155"/></clipPath><clipPath id="161615bfdc"><path d="M 189 5.199219 L 344.488281 5.199219 L 344.488281 162.894531 L 189 162.894531 Z M 189 5.199219 " clip-rule="nonzero"/></clipPath><clipPath id="b680f99cee"><path d="M 256.316406 5.578125 L 344.167969 5.578125 L 342.558594 7.183594 L 190.675781 160.980469 L 189.066406 162.667969 L 189.066406 73.285156 L 189.375 72.976562 L 255.703125 5.882812 L 256.007812 5.578125 L 256.390625 5.578125 M 256.390625 7.492188 L 256.390625 6.574219 L 257.082031 7.261719 L 190.753906 74.355469 L 190.0625 73.667969 L 190.980469 73.667969 L 190.980469 160.371094 L 189.984375 160.371094 L 189.296875 159.679688 L 341.257812 5.882812 L 341.945312 6.574219 L 341.945312 7.492188 L 256.316406 7.492188 Z M 256.390625 7.492188 " clip-rule="nonzero"/></clipPath><clipPath id="a958dccd19"><path d="M 0 0.515625 L 155.332031 0.515625 L 155.332031 157.816406 L 0 157.816406 Z M 0 0.515625 " clip-rule="nonzero"/></clipPath><clipPath id="7b8290a337"><path d="M 67.316406 0.578125 L 155.167969 0.578125 L 153.558594 2.183594 L 1.675781 155.980469 L 0.0664062 157.667969 L 0.0664062 68.285156 L 0.375 67.976562 L 66.703125 0.882812 L 67.007812 0.578125 L 67.390625 0.578125 M 67.390625 2.492188 L 67.390625 1.574219 L 68.082031 2.261719 L 1.753906 69.355469 L 1.0625 68.667969 L 1.980469 68.667969 L 1.980469 155.371094 L 0.984375 155.371094 L 0.296875 154.679688 L 152.257812 0.882812 L 152.945312 1.574219 L 152.945312 2.492188 L 67.316406 2.492188 Z M 67.390625 2.492188 " clip-rule="nonzero"/></clipPath><clipPath id="fa0c57422b"><rect x="0" width="156" y="0" height="158"/></clipPath><clipPath id="5affbf0816"><path d="M 226 410.703125 L 372 410.703125 L 372 556 L 226 556 Z M 226 410.703125 " clip-rule="nonzero"/></clipPath><clipPath id="079f35afcc"><path d="M 226.597656 555.429688 L 371.972656 410.824219 L 371.972656 493.699219 L 312.6875 555.507812 Z M 226.597656 555.429688 " clip-rule="nonzero"/></clipPath><clipPath id="b10bac3053"><path d="M 0.359375 0.753906 L 146 0.753906 L 146 145.585938 L 0.359375 145.585938 Z M 0.359375 0.753906 " clip-rule="nonzero"/></clipPath><clipPath id="d00fab7fde"><path d="M 0.597656 145.429688 L 145.972656 0.824219 L 145.972656 83.699219 L 86.6875 145.507812 Z M 0.597656 145.429688 " clip-rule="nonzero"/></clipPath><clipPath id="f7dbea3421"><rect x="0" width="146" y="0" height="146"/></clipPath><clipPath id="04e39fdfa9"><path d="M 224 408 L 373 408 L 373 557 L 224 557 Z M 224 408 " clip-rule="nonzero"/></clipPath><clipPath id="9d2a7aa41d"><path d="M 372.964844 410.824219 L 372.964844 494.082031 L 372.738281 494.386719 L 313.453125 556.195312 L 313.148438 556.503906 L 224.300781 556.503906 L 225.910156 554.894531 L 371.28125 410.136719 L 372.890625 408.527344 L 372.890625 410.824219 M 370.976562 410.824219 L 371.894531 410.824219 L 372.582031 411.515625 L 227.285156 556.121094 L 226.597656 555.429688 L 226.597656 554.511719 L 312.6875 554.511719 L 312.6875 555.429688 L 312 554.742188 L 371.28125 492.933594 L 371.972656 493.621094 L 371.050781 493.621094 L 371.050781 410.824219 Z M 370.976562 410.824219 " clip-rule="nonzero"/></clipPath><clipPath id="1147030426"><path d="M 0.199219 0.355469 L 149 0.355469 L 149 148.546875 L 0.199219 148.546875 Z M 0.199219 0.355469 " clip-rule="nonzero"/></clipPath><clipPath id="ef65aa87c4"><path d="M 148.964844 2.824219 L 148.964844 86.082031 L 148.738281 86.386719 L 89.453125 148.195312 L 89.148438 148.503906 L 0.300781 148.503906 L 1.910156 146.894531 L 147.28125 2.136719 L 148.890625 0.527344 L 148.890625 2.824219 M 146.976562 2.824219 L 147.894531 2.824219 L 148.582031 3.515625 L 3.285156 148.121094 L 2.597656 147.429688 L 2.597656 146.511719 L 88.6875 146.511719 L 88.6875 147.429688 L 88 146.742188 L 147.28125 84.933594 L 147.972656 85.621094 L 147.050781 85.621094 L 147.050781 2.824219 Z M 146.976562 2.824219 " clip-rule="nonzero"/></clipPath><clipPath id="ad7b67f6af"><rect x="0" width="149" y="0" height="149"/></clipPath><clipPath id="649f8bb953"><path d="M 189.863281 237 L 372 237 L 372 505.933594 L 189.863281 505.933594 Z M 189.863281 237 " clip-rule="nonzero"/></clipPath><clipPath id="246f6cdb36"><path d="M 189.984375 419.175781 L 371.972656 237.34375 L 371.972656 323.816406 L 189.984375 505.875 Z M 189.984375 419.175781 " clip-rule="nonzero"/></clipPath><clipPath id="d04e29cb17"><path d="M 0.910156 0.148438 L 183 0.148438 L 183 268.933594 L 0.910156 268.933594 Z M 0.910156 0.148438 " clip-rule="nonzero"/></clipPath><clipPath id="8cfe4ce0fb"><path d="M 0.984375 182.175781 L 182.972656 0.34375 L 182.972656 86.816406 L 0.984375 268.875 Z M 0.984375 182.175781 " clip-rule="nonzero"/></clipPath><clipPath id="0bed47d720"><rect x="0" width="183" y="0" height="269"/></clipPath><clipPath id="de3684e266"><path d="M 189 235 L 373 235 L 373 509 L 189 509 Z M 189 235 " clip-rule="nonzero"/></clipPath><clipPath id="ae55958e5a"><path d="M 372.964844 237.34375 L 372.964844 324.199219 L 372.660156 324.507812 L 190.675781 506.566406 L 189.066406 508.171875 L 189.066406 418.789062 L 189.375 418.484375 L 371.28125 236.65625 L 372.890625 235.046875 L 372.890625 237.34375 M 370.976562 237.34375 L 371.894531 237.34375 L 372.582031 238.035156 L 190.675781 419.863281 L 189.984375 419.175781 L 190.90625 419.175781 L 190.90625 505.875 L 189.984375 505.875 L 189.296875 505.1875 L 371.28125 323.128906 L 371.972656 323.816406 L 371.050781 323.816406 L 371.050781 237.34375 Z M 370.976562 237.34375 " clip-rule="nonzero"/></clipPath><clipPath id="435f0f5366"><path d="M 0 0 L 184 0 L 184 273.347656 L 0 273.347656 Z M 0 0 " clip-rule="nonzero"/></clipPath><clipPath id="586c9bd767"><path d="M 183.964844 2.34375 L 183.964844 89.199219 L 183.660156 89.507812 L 1.675781 271.566406 L 0.0664062 273.171875 L 0.0664062 183.789062 L 0.375 183.484375 L 182.28125 1.65625 L 183.890625 0.046875 L 183.890625 2.34375 M 181.976562 2.34375 L 182.894531 2.34375 L 183.582031 3.035156 L 1.675781 184.863281 L 0.984375 184.175781 L 1.90625 184.175781 L 1.90625 270.875 L 0.984375 270.875 L 0.296875 270.1875 L 182.28125 88.128906 L 182.972656 88.816406 L 182.050781 88.816406 L 182.050781 2.34375 Z M 181.976562 2.34375 " clip-rule="nonzero"/></clipPath><clipPath id="5b5009e111"><rect x="0" width="184" y="0" height="274"/></clipPath></defs><g clip-path="url(#b5576eafdd)"><g clip-path="url(#d190cf5d35)"><g transform="matrix(1, 0, 0, 1, 189, 5)"><g clip-path="url(#1312b24e95)"><g clip-path="url(#eeea3b0000)"><g clip-path="url(#69ff7ffc5b)"><rect x="-312.75" width="810" fill="#ff7021" height="809.999974" y="-128.749996" fill-opacity="1"/></g></g></g></g></g></g><g clip-path="url(#1800d0309f)"><g clip-path="url(#558c6944f0)"><g transform="matrix(1, 0, 0, 1, 188, 4)"><g clip-path="url(#d60a1eb9f6)"><g clip-path="url(#88affa1ce1)"><g clip-path="url(#cd830cd1d2)"><rect x="-311.75" width="810" fill="#ff7021" height="809.999974" y="-127.749996" fill-opacity="1"/></g></g></g></g></g></g><g clip-path="url(#a7e8427b56)"><g clip-path="url(#ce544f52e5)"><g transform="matrix(1, 0, 0, 1, 189, 64)"><g clip-path="url(#c6a088fc55)"><g clip-path="url(#cb070adf32)"><g clip-path="url(#5cda6eedc7)"><rect x="-312.75" width="810" fill="#000000" height="809.999974" y="-187.749996" fill-opacity="1"/></g></g></g></g></g></g><g clip-path="url(#44d3485e5f)"><g clip-path="url(#78f7913ce0)"><g transform="matrix(1, 0, 0, 1, 189, 61)"><g clip-path="url(#4d6eee2b11)"><g clip-path="url(#76a5977e6f)"><g clip-path="url(#169b98970f)"><rect x="-312.75" width="810" fill="#000000" height="809.999974" y="-184.749996" fill-opacity="1"/></g></g></g></g></g></g><g clip-path="url(#46a130fb51)"><g clip-path="url(#f4e53e82f5)"><g transform="matrix(1, 0, 0, 1, 189, 6)"><g clip-path="url(#7260755dc4)"><g clip-path="url(#10c3907f6e)"><g clip-path="url(#658c26c23f)"><rect x="-312.75" width="810" fill="#000000" height="809.999974" y="-129.749996" fill-opacity="1"/></g></g></g></g></g></g><g clip-path="url(#161615bfdc)"><g clip-path="url(#b680f99cee)"><g transform="matrix(1, 0, 0, 1, 189, 5)"><g clip-path="url(#fa0c57422b)"><g clip-path="url(#a958dccd19)"><g clip-path="url(#7b8290a337)"><rect x="-312.75" width="810" fill="#000000" height="809.999974" y="-128.749996" fill-opacity="1"/></g></g></g></g></g></g><g clip-path="url(#5affbf0816)"><g clip-path="url(#079f35afcc)"><g transform="matrix(1, 0, 0, 1, 226, 410)"><g clip-path="url(#f7dbea3421)"><g clip-path="url(#b10bac3053)"><g clip-path="url(#d00fab7fde)"><rect x="-349.75" width="810" fill="#000000" height="809.999974" y="-533.749996" fill-opacity="1"/></g></g></g></g></g></g><g clip-path="url(#04e39fdfa9)"><g clip-path="url(#9d2a7aa41d)"><g transform="matrix(1, 0, 0, 1, 224, 408)"><g clip-path="url(#ad7b67f6af)"><g clip-path="url(#1147030426)"><g clip-path="url(#ef65aa87c4)"><rect x="-347.75" width="810" fill="#000000" height="809.999974" y="-531.749996" fill-opacity="1"/></g></g></g></g></g></g><g clip-path="url(#649f8bb953)"><g clip-path="url(#246f6cdb36)"><g transform="matrix(1, 0, 0, 1, 189, 237)"><g clip-path="url(#0bed47d720)"><g clip-path="url(#d04e29cb17)"><g clip-path="url(#8cfe4ce0fb)"><rect x="-312.75" width="810" fill="#000000" height="809.999974" y="-360.749996" fill-opacity="1"/></g></g></g></g></g></g><g clip-path="url(#de3684e266)"><g clip-path="url(#ae55958e5a)"><g transform="matrix(1, 0, 0, 1, 189, 235)"><g clip-path="url(#5b5009e111)"><g clip-path="url(#435f0f5366)"><g clip-path="url(#586c9bd767)"><rect x="-312.75" width="810" fill="#000000" height="809.999974" y="-358.749996" fill-opacity="1"/></g></g></g></g></g></g></svg>