<svg xmlns="http://www.w3.org/2000/svg" xmlns:xlink="http://www.w3.org/1999/xlink" width="750" zoomAndPan="magnify" viewBox="0 0 562.5 562.499982" height="750" preserveAspectRatio="xMidYMid meet" version="1.0"><defs><clipPath id="c461ee4503"><path d="M 190.117188 9.023438 L 371.882812 9.023438 L 371.882812 553 L 190.117188 553 Z M 190.117188 9.023438 " clip-rule="nonzero"/></clipPath><clipPath id="5397f611d8"><path d="M 213.378906 552.605469 L 208.773438 552.078125 L 204.464844 550.792969 L 200.539062 548.679688 L 197.214844 545.882812 L 194.421875 542.410156 L 192.304688 538.632812 L 191.023438 534.328125 L 190.492188 529.570312 L 190.492188 32.433594 L 191.023438 27.828125 L 192.304688 23.371094 L 194.421875 19.59375 L 197.214844 16.121094 L 200.539062 13.324219 L 204.464844 11.210938 L 208.773438 9.925781 L 213.378906 9.398438 L 348.652344 9.398438 L 353.261719 9.925781 L 357.566406 11.210938 L 361.492188 13.324219 L 364.96875 16.121094 L 367.761719 19.59375 L 369.726562 23.371094 L 371.238281 27.828125 L 371.539062 32.433594 L 371.539062 529.570312 L 371.238281 534.328125 L 369.726562 538.632812 L 367.761719 542.410156 L 364.96875 545.882812 L 361.492188 548.679688 L 357.566406 550.792969 L 353.261719 552.078125 L 348.652344 552.605469 Z M 213.378906 552.605469 " clip-rule="nonzero"/></clipPath><clipPath id="ef54538c27"><path d="M 0.390625 0.351562 L 181.667969 0.351562 L 181.667969 543.707031 L 0.390625 543.707031 Z M 0.390625 0.351562 " clip-rule="nonzero"/></clipPath><clipPath id="8439bba47a"><path d="M 23.378906 543.605469 L 18.773438 543.078125 L 14.464844 541.792969 L 10.539062 539.679688 L 7.214844 536.882812 L 4.421875 533.410156 L 2.304688 529.632812 L 1.023438 525.328125 L 0.492188 520.570312 L 0.492188 23.433594 L 1.023438 18.828125 L 2.304688 14.371094 L 4.421875 10.59375 L 7.214844 7.121094 L 10.539062 4.324219 L 14.464844 2.210938 L 18.773438 0.925781 L 23.378906 0.398438 L 158.652344 0.398438 L 163.261719 0.925781 L 167.566406 2.210938 L 171.492188 4.324219 L 174.96875 7.121094 L 177.761719 10.59375 L 179.726562 14.371094 L 181.238281 18.828125 L 181.539062 23.433594 L 181.539062 520.570312 L 181.238281 525.328125 L 179.726562 529.632812 L 177.761719 533.410156 L 174.96875 536.882812 L 171.492188 539.679688 L 167.566406 541.792969 L 163.261719 543.078125 L 158.652344 543.605469 Z M 23.378906 543.605469 " clip-rule="nonzero"/></clipPath><clipPath id="62c458d250"><rect x="0" width="182" y="0" height="544"/></clipPath><clipPath id="11c83608fd"><path d="M 189.109375 8.015625 L 372.890625 8.015625 L 372.890625 554 L 189.109375 554 Z M 189.109375 8.015625 " clip-rule="nonzero"/></clipPath><clipPath id="3dc12a60a9"><path d="M 213.378906 8.417969 L 348.804688 8.417969 L 353.414062 8.945312 L 353.5625 8.945312 L 357.867188 10.230469 L 357.945312 10.230469 L 358.019531 10.304688 L 361.945312 12.417969 L 362.097656 12.570312 L 365.574219 15.363281 L 365.648438 15.441406 L 365.722656 15.515625 L 368.519531 18.992188 L 368.667969 19.140625 L 370.632812 22.917969 L 370.632812 23.070312 L 372.144531 27.523438 L 372.144531 27.75 L 372.445312 32.359375 L 372.445312 529.570312 L 372.144531 534.328125 L 372.144531 534.476562 L 372.066406 534.628906 L 370.558594 538.933594 L 370.558594 539.085938 L 368.59375 542.863281 L 368.519531 542.9375 L 368.441406 543.011719 L 365.648438 546.488281 L 365.574219 546.5625 L 365.496094 546.636719 L 362.023438 549.433594 L 361.945312 549.507812 L 361.871094 549.585938 L 357.945312 551.699219 L 357.867188 551.773438 L 357.792969 551.773438 L 353.488281 553.058594 L 353.335938 553.058594 L 348.730469 553.585938 L 213.226562 553.585938 L 208.621094 553.058594 L 208.46875 553.058594 L 204.164062 551.773438 L 204.089844 551.773438 L 204.011719 551.699219 L 200.085938 549.585938 L 200.011719 549.507812 L 199.933594 549.433594 L 196.613281 546.636719 L 196.535156 546.5625 L 196.460938 546.488281 L 193.664062 543.011719 L 193.515625 542.863281 L 191.398438 539.085938 L 191.324219 539.011719 L 191.324219 538.933594 L 190.039062 534.628906 L 190.039062 534.476562 L 189.511719 529.644531 L 189.511719 32.285156 L 190.039062 27.675781 L 190.039062 27.523438 L 191.324219 23.070312 L 191.324219 22.992188 L 191.398438 22.917969 L 193.515625 19.140625 L 193.664062 18.992188 L 196.460938 15.515625 L 196.613281 15.363281 L 199.933594 12.570312 L 200.011719 12.496094 L 200.085938 12.417969 L 204.011719 10.304688 L 204.089844 10.230469 L 204.164062 10.230469 L 208.46875 8.945312 L 208.621094 8.945312 L 213.226562 8.417969 L 213.378906 8.417969 M 213.378906 10.304688 L 213.378906 9.324219 L 213.453125 10.230469 L 208.847656 10.757812 L 208.773438 9.851562 L 209.074219 10.757812 L 204.769531 12.042969 L 204.464844 11.136719 L 204.917969 11.964844 L 200.992188 14.082031 L 200.539062 13.25 L 201.144531 14.003906 L 197.820312 16.800781 L 197.214844 16.042969 L 197.972656 16.648438 L 195.175781 20.125 L 194.421875 19.519531 L 195.253906 19.972656 L 193.136719 23.75 L 192.304688 23.296875 L 193.210938 23.597656 L 191.929688 28.054688 L 191.023438 27.75 L 191.929688 27.828125 L 191.398438 32.433594 L 190.492188 32.359375 L 191.398438 32.359375 L 191.398438 529.570312 L 190.417969 529.570312 L 191.324219 529.492188 L 191.851562 534.25 L 190.945312 534.328125 L 191.851562 534.023438 L 193.136719 538.332031 L 192.230469 538.632812 L 193.0625 538.179688 L 195.175781 541.957031 L 194.34375 542.410156 L 195.101562 541.804688 L 197.894531 545.277344 L 197.140625 545.882812 L 197.746094 545.128906 L 201.066406 547.921875 L 200.464844 548.679688 L 200.917969 547.847656 L 204.84375 549.960938 L 204.390625 550.792969 L 204.691406 549.886719 L 209 551.171875 L 208.695312 552.078125 L 208.773438 551.171875 L 213.378906 551.699219 L 213.304688 552.605469 L 213.304688 551.699219 L 348.652344 551.699219 L 348.652344 552.605469 L 348.578125 551.699219 L 353.1875 551.171875 L 353.261719 552.078125 L 352.960938 551.171875 L 357.265625 549.886719 L 357.566406 550.792969 L 357.113281 549.960938 L 361.039062 547.847656 L 361.492188 548.679688 L 360.890625 547.921875 L 364.363281 545.128906 L 364.96875 545.882812 L 364.214844 545.277344 L 367.007812 541.804688 L 367.761719 542.410156 L 366.933594 541.957031 L 368.894531 538.179688 L 369.726562 538.632812 L 368.820312 538.332031 L 370.332031 534.023438 L 371.238281 534.328125 L 370.332031 534.25 L 370.632812 529.492188 L 371.539062 529.570312 L 370.632812 529.570312 L 370.632812 32.433594 L 371.539062 32.433594 L 370.632812 32.511719 L 370.332031 27.902344 L 371.238281 27.828125 L 370.332031 28.128906 L 368.820312 23.671875 L 369.726562 23.371094 L 368.894531 23.824219 L 366.933594 20.046875 L 367.761719 19.59375 L 367.007812 20.199219 L 364.214844 16.726562 L 364.96875 16.121094 L 364.363281 16.875 L 360.890625 14.082031 L 361.492188 13.324219 L 361.039062 14.15625 L 357.113281 12.042969 L 357.566406 11.210938 L 357.265625 12.117188 L 352.960938 10.832031 L 353.261719 9.925781 L 353.1875 10.832031 L 348.578125 10.304688 L 348.652344 9.398438 L 348.652344 10.304688 Z M 213.378906 10.304688 " clip-rule="nonzero"/></clipPath><clipPath id="26fef0c1c1"><path d="M 0.429688 0.390625 L 183.628906 0.390625 L 183.628906 545.667969 L 0.429688 545.667969 Z M 0.429688 0.390625 " clip-rule="nonzero"/></clipPath><clipPath id="b1af7d0ba3"><path d="M 24.378906 0.417969 L 159.804688 0.417969 L 164.414062 0.945312 L 164.5625 0.945312 L 168.867188 2.230469 L 168.945312 2.230469 L 169.019531 2.304688 L 172.945312 4.417969 L 173.097656 4.570312 L 176.574219 7.363281 L 176.648438 7.441406 L 176.722656 7.515625 L 179.519531 10.992188 L 179.667969 11.140625 L 181.632812 14.917969 L 181.632812 15.070312 L 183.144531 19.523438 L 183.144531 19.75 L 183.445312 24.359375 L 183.445312 521.570312 L 183.144531 526.328125 L 183.144531 526.476562 L 183.066406 526.628906 L 181.558594 530.933594 L 181.558594 531.085938 L 179.59375 534.863281 L 179.519531 534.9375 L 179.441406 535.011719 L 176.648438 538.488281 L 176.574219 538.5625 L 176.496094 538.636719 L 173.023438 541.433594 L 172.945312 541.507812 L 172.871094 541.585938 L 168.945312 543.699219 L 168.867188 543.773438 L 168.792969 543.773438 L 164.488281 545.058594 L 164.335938 545.058594 L 159.730469 545.585938 L 24.226562 545.585938 L 19.621094 545.058594 L 19.46875 545.058594 L 15.164062 543.773438 L 15.089844 543.773438 L 15.011719 543.699219 L 11.085938 541.585938 L 11.011719 541.507812 L 10.933594 541.433594 L 7.613281 538.636719 L 7.535156 538.5625 L 7.460938 538.488281 L 4.664062 535.011719 L 4.515625 534.863281 L 2.398438 531.085938 L 2.324219 531.011719 L 2.324219 530.933594 L 1.039062 526.628906 L 1.039062 526.476562 L 0.511719 521.644531 L 0.511719 24.285156 L 1.039062 19.675781 L 1.039062 19.523438 L 2.324219 15.070312 L 2.324219 14.992188 L 2.398438 14.917969 L 4.515625 11.140625 L 4.664062 10.992188 L 7.460938 7.515625 L 7.613281 7.363281 L 10.933594 4.570312 L 11.011719 4.496094 L 11.085938 4.417969 L 15.011719 2.304688 L 15.089844 2.230469 L 15.164062 2.230469 L 19.46875 0.945312 L 19.621094 0.945312 L 24.226562 0.417969 L 24.378906 0.417969 M 24.378906 2.304688 L 24.378906 1.324219 L 24.453125 2.230469 L 19.847656 2.757812 L 19.773438 1.851562 L 20.074219 2.757812 L 15.769531 4.042969 L 15.464844 3.136719 L 15.917969 3.964844 L 11.992188 6.082031 L 11.539062 5.25 L 12.144531 6.003906 L 8.820312 8.800781 L 8.214844 8.042969 L 8.972656 8.648438 L 6.175781 12.125 L 5.421875 11.519531 L 6.253906 11.972656 L 4.136719 15.75 L 3.304688 15.296875 L 4.210938 15.597656 L 2.929688 20.054688 L 2.023438 19.75 L 2.929688 19.828125 L 2.398438 24.433594 L 1.492188 24.359375 L 2.398438 24.359375 L 2.398438 521.570312 L 1.417969 521.570312 L 2.324219 521.492188 L 2.851562 526.25 L 1.945312 526.328125 L 2.851562 526.023438 L 4.136719 530.332031 L 3.230469 530.632812 L 4.0625 530.179688 L 6.175781 533.957031 L 5.34375 534.410156 L 6.101562 533.804688 L 8.894531 537.277344 L 8.140625 537.882812 L 8.746094 537.128906 L 12.066406 539.921875 L 11.464844 540.679688 L 11.917969 539.847656 L 15.84375 541.960938 L 15.390625 542.792969 L 15.691406 541.886719 L 20 543.171875 L 19.695312 544.078125 L 19.773438 543.171875 L 24.378906 543.699219 L 24.304688 544.605469 L 24.304688 543.699219 L 159.652344 543.699219 L 159.652344 544.605469 L 159.578125 543.699219 L 164.1875 543.171875 L 164.261719 544.078125 L 163.960938 543.171875 L 168.265625 541.886719 L 168.566406 542.792969 L 168.113281 541.960938 L 172.039062 539.847656 L 172.492188 540.679688 L 171.890625 539.921875 L 175.363281 537.128906 L 175.96875 537.882812 L 175.214844 537.277344 L 178.007812 533.804688 L 178.761719 534.410156 L 177.933594 533.957031 L 179.894531 530.179688 L 180.726562 530.632812 L 179.820312 530.332031 L 181.332031 526.023438 L 182.238281 526.328125 L 181.332031 526.25 L 181.632812 521.492188 L 182.539062 521.570312 L 181.632812 521.570312 L 181.632812 24.433594 L 182.539062 24.433594 L 181.632812 24.511719 L 181.332031 19.902344 L 182.238281 19.828125 L 181.332031 20.128906 L 179.820312 15.671875 L 180.726562 15.371094 L 179.894531 15.824219 L 177.933594 12.046875 L 178.761719 11.59375 L 178.007812 12.199219 L 175.214844 8.726562 L 175.96875 8.121094 L 175.363281 8.875 L 171.890625 6.082031 L 172.492188 5.324219 L 172.039062 6.15625 L 168.113281 4.042969 L 168.566406 3.210938 L 168.265625 4.117188 L 163.960938 2.832031 L 164.261719 1.925781 L 164.1875 2.832031 L 159.578125 2.304688 L 159.652344 1.398438 L 159.652344 2.304688 Z M 24.378906 2.304688 " clip-rule="nonzero"/></clipPath><clipPath id="a43cc7e9da"><rect x="0" width="184" y="0" height="546"/></clipPath><clipPath id="4c220ff58f"><path d="M 191.128906 237.238281 L 370.871094 237.238281 L 370.871094 502.8125 L 191.128906 502.8125 Z M 191.128906 237.238281 " clip-rule="nonzero"/></clipPath><clipPath id="008c465a45"><path d="M 191.25 323.222656 L 191.25 237.949219 L 370.707031 417.257812 L 370.707031 502.757812 Z M 191.25 323.222656 " clip-rule="nonzero"/></clipPath><clipPath id="07f5224969"><path d="M 0.128906 0.867188 L 179.710938 0.867188 L 179.710938 265.8125 L 0.128906 265.8125 Z M 0.128906 0.867188 " clip-rule="nonzero"/></clipPath><clipPath id="d6d10770b4"><path d="M 0.25 86.222656 L 0.25 0.949219 L 179.707031 180.257812 L 179.707031 265.757812 Z M 0.25 86.222656 " clip-rule="nonzero"/></clipPath><clipPath id="88aa05a550"><rect x="0" width="180" y="0" height="266"/></clipPath><clipPath id="be807e3fb7"><path d="M 190.117188 235.21875 L 371.882812 235.21875 L 371.882812 505.84375 L 190.117188 505.84375 Z M 190.117188 235.21875 " clip-rule="nonzero"/></clipPath><clipPath id="c016da5746"><path d="M 191.929688 237.269531 L 371.386719 416.578125 L 371.691406 416.878906 L 371.691406 505.023438 L 370.105469 503.4375 L 190.644531 323.902344 L 190.34375 323.601562 L 190.34375 235.683594 L 191.929688 237.269531 M 190.570312 238.628906 L 191.25 237.949219 L 192.15625 237.949219 L 192.15625 323.222656 L 191.25 323.222656 L 191.929688 322.542969 L 371.386719 502.078125 L 370.707031 502.757812 L 369.800781 502.757812 L 369.800781 417.257812 L 370.707031 417.257812 L 370.027344 417.9375 L 190.644531 238.628906 Z M 190.570312 238.628906 " clip-rule="nonzero"/></clipPath><clipPath id="aa6e5b939d"><path d="M 0.152344 0.46875 L 181.882812 0.46875 L 181.882812 270.230469 L 0.152344 270.230469 Z M 0.152344 0.46875 " clip-rule="nonzero"/></clipPath><clipPath id="13249ac325"><path d="M 1.929688 2.269531 L 181.386719 181.578125 L 181.691406 181.878906 L 181.691406 270.023438 L 180.105469 268.4375 L 0.644531 88.902344 L 0.34375 88.601562 L 0.34375 0.683594 L 1.929688 2.269531 M 0.570312 3.628906 L 1.25 2.949219 L 2.15625 2.949219 L 2.15625 88.222656 L 1.25 88.222656 L 1.929688 87.542969 L 181.386719 267.078125 L 180.707031 267.757812 L 179.800781 267.757812 L 179.800781 182.257812 L 180.707031 182.257812 L 180.027344 182.9375 L 0.644531 3.628906 Z M 0.570312 3.628906 " clip-rule="nonzero"/></clipPath><clipPath id="f8983403ef"><rect x="0" width="182" y="0" height="271"/></clipPath><clipPath id="2c0a68123e"><path d="M 191.128906 409 L 335 409 L 335 552 L 191.128906 552 Z M 191.128906 409 " clip-rule="nonzero"/></clipPath><clipPath id="76ea450b26"><path d="M 249.785156 551.625 L 191.25 490.746094 L 191.25 409.023438 L 334.605469 551.625 Z M 249.785156 551.625 " clip-rule="nonzero"/></clipPath><clipPath id="57db6f6a30"><path d="M 0.128906 0 L 143.742188 0 L 143.742188 142.75 L 0.128906 142.75 Z M 0.128906 0 " clip-rule="nonzero"/></clipPath><clipPath id="0644ec56c2"><path d="M 58.785156 142.625 L 0.25 81.746094 L 0.25 0.0234375 L 143.605469 142.625 Z M 58.785156 142.625 " clip-rule="nonzero"/></clipPath><clipPath id="f96d1abe1b"><rect x="0" width="144" y="0" height="143"/></clipPath><clipPath id="ca5512f4ac"><path d="M 190.117188 406 L 337 406 L 337 553 L 190.117188 553 Z M 190.117188 406 " clip-rule="nonzero"/></clipPath><clipPath id="73b03b4aa4"><path d="M 191.929688 408.34375 L 335.285156 550.945312 L 336.871094 552.53125 L 249.40625 552.53125 L 249.105469 552.226562 L 190.644531 491.277344 L 190.417969 490.972656 L 190.417969 406.757812 L 192.003906 408.34375 M 190.644531 409.703125 L 191.324219 409.023438 L 192.230469 409.023438 L 192.230469 490.746094 L 191.25 490.746094 L 191.929688 490.066406 L 250.390625 551.019531 L 249.710938 551.699219 L 249.710938 550.71875 L 334.605469 550.71875 L 334.605469 551.625 L 333.925781 552.304688 Z M 190.644531 409.703125 " clip-rule="nonzero"/></clipPath><clipPath id="6a22376910"><path d="M 0.390625 0.679688 L 146.902344 0.679688 L 146.902344 146.707031 L 0.390625 146.707031 Z M 0.390625 0.679688 " clip-rule="nonzero"/></clipPath><clipPath id="9ca57e8b31"><path d="M 1.929688 2.34375 L 145.285156 144.945312 L 146.871094 146.53125 L 59.40625 146.53125 L 59.105469 146.226562 L 0.644531 85.277344 L 0.417969 84.972656 L 0.417969 0.757812 L 2.003906 2.34375 M 0.644531 3.703125 L 1.324219 3.023438 L 2.230469 3.023438 L 2.230469 84.746094 L 1.25 84.746094 L 1.929688 84.066406 L 60.390625 145.019531 L 59.710938 145.699219 L 59.710938 144.71875 L 144.605469 144.71875 L 144.605469 145.625 L 143.925781 146.304688 Z M 0.644531 3.703125 " clip-rule="nonzero"/></clipPath><clipPath id="8aaaa09042"><rect x="0" width="147" y="0" height="147"/></clipPath><clipPath id="4270f2fc5e"><path d="M 220.414062 10.035156 L 370.871094 10.035156 L 370.871094 162.511719 L 220.414062 162.511719 Z M 220.414062 10.035156 " clip-rule="nonzero"/></clipPath><clipPath id="728b8bc634"><path d="M 220.933594 10.378906 L 305.300781 10.378906 L 370.707031 76.542969 L 370.707031 162.042969 Z M 220.933594 10.378906 " clip-rule="nonzero"/></clipPath><clipPath id="7991424e4d"><path d="M 0.84375 0.3125 L 150.710938 0.3125 L 150.710938 152.097656 L 0.84375 152.097656 Z M 0.84375 0.3125 " clip-rule="nonzero"/></clipPath><clipPath id="0287fe3a7a"><path d="M 0.933594 0.378906 L 85.300781 0.378906 L 150.707031 66.542969 L 150.707031 152.042969 Z M 0.933594 0.378906 " clip-rule="nonzero"/></clipPath><clipPath id="e1ed3a56e5"><rect x="0" width="151" y="0" height="153"/></clipPath><clipPath id="1cadfe2ba8"><path d="M 218.394531 9.023438 L 371.882812 9.023438 L 371.882812 164.53125 L 218.394531 164.53125 Z M 218.394531 9.023438 " clip-rule="nonzero"/></clipPath><clipPath id="8c68fed36e"><path d="M 220.933594 9.398438 L 305.675781 9.398438 L 305.980469 9.699219 L 371.386719 75.863281 L 371.691406 76.167969 L 371.691406 164.308594 L 370.105469 162.648438 L 220.253906 10.984375 L 218.667969 9.398438 L 220.933594 9.398438 M 220.933594 11.285156 L 220.933594 10.378906 L 221.613281 9.699219 L 371.386719 161.363281 L 370.707031 162.042969 L 369.800781 162.042969 L 369.800781 76.542969 L 370.707031 76.542969 L 370.027344 77.222656 L 304.621094 11.058594 L 305.300781 10.378906 L 305.300781 11.285156 Z M 220.933594 11.285156 " clip-rule="nonzero"/></clipPath><clipPath id="44155e2174"><path d="M 0.445312 0.351562 L 153.882812 0.351562 L 153.882812 155.492188 L 0.445312 155.492188 Z M 0.445312 0.351562 " clip-rule="nonzero"/></clipPath><clipPath id="b24fe4e3ae"><path d="M 2.933594 0.398438 L 87.675781 0.398438 L 87.980469 0.699219 L 153.386719 66.863281 L 153.691406 67.167969 L 153.691406 155.308594 L 152.105469 153.648438 L 2.253906 1.984375 L 0.667969 0.398438 L 2.933594 0.398438 M 2.933594 2.285156 L 2.933594 1.378906 L 3.613281 0.699219 L 153.386719 152.363281 L 152.707031 153.042969 L 151.800781 153.042969 L 151.800781 67.542969 L 152.707031 67.542969 L 152.027344 68.222656 L 86.621094 2.058594 L 87.300781 1.378906 L 87.300781 2.285156 Z M 2.933594 2.285156 " clip-rule="nonzero"/></clipPath><clipPath id="0c44b21f18"><rect x="0" width="154" y="0" height="156"/></clipPath><clipPath id="e4a9fd2881"><path d="M 191.128906 66.582031 L 370.871094 66.582031 L 370.871094 332 L 191.128906 332 Z M 191.128906 66.582031 " clip-rule="nonzero"/></clipPath><clipPath id="069022e38c"><path d="M 191.25 152.300781 L 191.25 66.800781 L 370.707031 246.332031 L 370.707031 331.984375 Z M 191.25 152.300781 " clip-rule="nonzero"/></clipPath><clipPath id="2e4a63b137"><path d="M 0.128906 0.660156 L 179.710938 0.660156 L 179.710938 266 L 0.128906 266 Z M 0.128906 0.660156 " clip-rule="nonzero"/></clipPath><clipPath id="2a45a3c606"><path d="M 0.25 86.300781 L 0.25 0.800781 L 179.707031 180.332031 L 179.707031 265.984375 Z M 0.25 86.300781 " clip-rule="nonzero"/></clipPath><clipPath id="113fb67db0"><rect x="0" width="180" y="0" height="266"/></clipPath><clipPath id="9cc6f84b1b"><path d="M 190.117188 64 L 371.882812 64 L 371.882812 335 L 190.117188 335 Z M 190.117188 64 " clip-rule="nonzero"/></clipPath><clipPath id="4a2663f8de"><path d="M 191.929688 66.195312 L 371.691406 245.957031 L 371.691406 334.25 L 370.105469 332.664062 L 190.644531 152.980469 L 190.34375 152.675781 L 190.34375 64.535156 L 191.929688 66.121094 M 190.570312 67.480469 L 191.25 66.800781 L 192.15625 66.800781 L 192.15625 152.300781 L 191.25 152.300781 L 191.929688 151.621094 L 371.386719 331.304688 L 370.707031 331.984375 L 369.800781 331.984375 L 369.800781 246.332031 L 370.707031 246.332031 L 370.027344 247.015625 L 190.644531 67.480469 Z M 190.570312 67.480469 " clip-rule="nonzero"/></clipPath><clipPath id="bde8f8887a"><path d="M 0.152344 0.503906 L 181.882812 0.503906 L 181.882812 270.261719 L 0.152344 270.261719 Z M 0.152344 0.503906 " clip-rule="nonzero"/></clipPath><clipPath id="ccf2db4d7c"><path d="M 1.929688 2.195312 L 181.691406 181.957031 L 181.691406 270.25 L 180.105469 268.664062 L 0.644531 88.980469 L 0.34375 88.675781 L 0.34375 0.535156 L 1.929688 2.121094 M 0.570312 3.480469 L 1.25 2.800781 L 2.15625 2.800781 L 2.15625 88.300781 L 1.25 88.300781 L 1.929688 87.621094 L 181.386719 267.304688 L 180.707031 267.984375 L 179.800781 267.984375 L 179.800781 182.332031 L 180.707031 182.332031 L 180.027344 183.015625 L 0.644531 3.480469 Z M 0.570312 3.480469 " clip-rule="nonzero"/></clipPath><clipPath id="5d1dafd411"><rect x="0" width="182" y="0" height="271"/></clipPath></defs><g clip-path="url(#c461ee4503)"><g clip-path="url(#5397f611d8)"><g transform="matrix(1, 0, 0, 1, 190, 9)"><g clip-path="url(#62c458d250)"><g clip-path="url(#ef54538c27)"><g clip-path="url(#8439bba47a)"><rect x="-313.75" width="810" fill="#ff7021" height="809.999974" y="-132.749996" fill-opacity="1"/></g></g></g></g></g></g><g clip-path="url(#11c83608fd)"><g clip-path="url(#3dc12a60a9)"><g transform="matrix(1, 0, 0, 1, 189, 8)"><g clip-path="url(#a43cc7e9da)"><g clip-path="url(#26fef0c1c1)"><g clip-path="url(#b1af7d0ba3)"><rect x="-312.75" width="810" fill="#ff7021" height="809.999974" y="-131.749996" fill-opacity="1"/></g></g></g></g></g></g><g clip-path="url(#4c220ff58f)"><g clip-path="url(#008c465a45)"><g transform="matrix(1, 0, 0, 1, 191, 237)"><g clip-path="url(#88aa05a550)"><g clip-path="url(#07f5224969)"><g clip-path="url(#d6d10770b4)"><rect x="-314.75" width="810" fill="#000000" height="809.999974" y="-360.749996" fill-opacity="1"/></g></g></g></g></g></g><g clip-path="url(#be807e3fb7)"><g clip-path="url(#c016da5746)"><g transform="matrix(1, 0, 0, 1, 190, 235)"><g clip-path="url(#f8983403ef)"><g clip-path="url(#aa6e5b939d)"><g clip-path="url(#13249ac325)"><rect x="-313.75" width="810" fill="#000000" height="809.999974" y="-358.749996" fill-opacity="1"/></g></g></g></g></g></g><g clip-path="url(#2c0a68123e)"><g clip-path="url(#76ea450b26)"><g transform="matrix(1, 0, 0, 1, 191, 409)"><g clip-path="url(#f96d1abe1b)"><g clip-path="url(#57db6f6a30)"><g clip-path="url(#0644ec56c2)"><rect x="-314.75" width="810" fill="#000000" height="809.999974" y="-532.749996" fill-opacity="1"/></g></g></g></g></g></g><g clip-path="url(#ca5512f4ac)"><g clip-path="url(#73b03b4aa4)"><g transform="matrix(1, 0, 0, 1, 190, 406)"><g clip-path="url(#8aaaa09042)"><g clip-path="url(#6a22376910)"><g clip-path="url(#9ca57e8b31)"><rect x="-313.75" width="810" fill="#000000" height="809.999974" y="-529.749996" fill-opacity="1"/></g></g></g></g></g></g><g clip-path="url(#4270f2fc5e)"><g clip-path="url(#728b8bc634)"><g transform="matrix(1, 0, 0, 1, 220, 10)"><g clip-path="url(#e1ed3a56e5)"><g clip-path="url(#7991424e4d)"><g clip-path="url(#0287fe3a7a)"><rect x="-343.75" width="810" fill="#000000" height="809.999974" y="-133.749996" fill-opacity="1"/></g></g></g></g></g></g><g clip-path="url(#1cadfe2ba8)"><g clip-path="url(#8c68fed36e)"><g transform="matrix(1, 0, 0, 1, 218, 9)"><g clip-path="url(#0c44b21f18)"><g clip-path="url(#44155e2174)"><g clip-path="url(#b24fe4e3ae)"><rect x="-341.75" width="810" fill="#000000" height="809.999974" y="-132.749996" fill-opacity="1"/></g></g></g></g></g></g><g clip-path="url(#e4a9fd2881)"><g clip-path="url(#069022e38c)"><g transform="matrix(1, 0, 0, 1, 191, 66)"><g clip-path="url(#113fb67db0)"><g clip-path="url(#2e4a63b137)"><g clip-path="url(#2a45a3c606)"><rect x="-314.75" width="810" fill="#000000" height="809.999974" y="-189.749996" fill-opacity="1"/></g></g></g></g></g></g><g clip-path="url(#9cc6f84b1b)"><g clip-path="url(#4a2663f8de)"><g transform="matrix(1, 0, 0, 1, 190, 64)"><g clip-path="url(#5d1dafd411)"><g clip-path="url(#bde8f8887a)"><g clip-path="url(#ccf2db4d7c)"><rect x="-313.75" width="810" fill="#000000" height="809.999974" y="-187.749996" fill-opacity="1"/></g></g></g></g></g></g></svg>