<svg xmlns="http://www.w3.org/2000/svg" xmlns:xlink="http://www.w3.org/1999/xlink" width="750" zoomAndPan="magnify" viewBox="0 0 562.5 562.499982" height="750" preserveAspectRatio="xMidYMid meet" version="1.0"><defs><clipPath id="6881e66c21"><path d="M 194.226562 21.425781 L 367.773438 21.425781 L 367.773438 541 L 194.226562 541 Z M 194.226562 21.425781 " clip-rule="nonzero"/></clipPath><clipPath id="1f7b04d68a"><path d="M 216.398438 540.242188 L 212 539.738281 L 207.894531 538.511719 L 204.144531 536.492188 L 200.972656 533.828125 L 198.308594 530.511719 L 196.289062 526.90625 L 195.066406 522.65625 L 194.558594 518.257812 L 194.558594 41.507812 L 195.066406 38.984375 L 195.714844 36.605469 L 196.507812 34.085938 L 197.730469 31.5625 L 199.460938 29.328125 L 201.335938 27.308594 L 203.855469 25.4375 L 206.667969 23.851562 L 210.128906 22.769531 L 213.875 21.976562 L 218.414062 21.6875 L 343.601562 21.6875 L 347.925781 21.976562 L 351.890625 22.769531 L 355.203125 23.851562 L 358.015625 25.4375 L 360.539062 27.308594 L 362.554688 29.328125 L 364.140625 31.5625 L 365.367188 34.085938 L 366.304688 36.605469 L 366.953125 38.984375 L 367.242188 41.507812 L 367.382812 43.8125 L 367.382812 518.257812 L 366.878906 522.65625 L 365.65625 526.90625 L 363.636719 530.511719 L 360.96875 533.828125 L 357.65625 536.492188 L 353.90625 538.511719 L 349.800781 539.738281 L 345.402344 540.242188 Z M 216.398438 540.242188 " clip-rule="nonzero"/></clipPath><clipPath id="da7b475c23"><path d="M 0.46875 0.582031 L 173.59375 0.582031 L 173.59375 519.480469 L 0.46875 519.480469 Z M 0.46875 0.582031 " clip-rule="nonzero"/></clipPath><clipPath id="7818b496ab"><path d="M 22.398438 519.242188 L 18 518.738281 L 13.894531 517.511719 L 10.144531 515.492188 L 6.972656 512.828125 L 4.308594 509.511719 L 2.289062 505.90625 L 1.066406 501.65625 L 0.558594 497.257812 L 0.558594 20.507812 L 1.066406 17.984375 L 1.714844 15.605469 L 2.507812 13.085938 L 3.730469 10.5625 L 5.460938 8.328125 L 7.335938 6.308594 L 9.855469 4.4375 L 12.667969 2.851562 L 16.128906 1.769531 L 19.875 0.976562 L 24.414062 0.6875 L 149.601562 0.6875 L 153.925781 0.976562 L 157.890625 1.769531 L 161.203125 2.851562 L 164.015625 4.4375 L 166.539062 6.308594 L 168.554688 8.328125 L 170.140625 10.5625 L 171.367188 13.085938 L 172.304688 15.605469 L 172.953125 17.984375 L 173.242188 20.507812 L 173.382812 22.8125 L 173.382812 497.257812 L 172.878906 501.65625 L 171.65625 505.90625 L 169.636719 509.511719 L 166.96875 512.828125 L 163.65625 515.492188 L 159.90625 517.511719 L 155.800781 518.738281 L 151.402344 519.242188 Z M 22.398438 519.242188 " clip-rule="nonzero"/></clipPath><clipPath id="2dd9a5de82"><rect x="0" width="174" y="0" height="520"/></clipPath><clipPath id="beb2057001"><path d="M 193.261719 20.460938 L 368.738281 20.460938 L 368.738281 542 L 193.261719 542 Z M 193.261719 20.460938 " clip-rule="nonzero"/></clipPath><clipPath id="6c9b4a4163"><path d="M 218.414062 20.824219 L 343.601562 20.824219 L 347.996094 21.113281 L 348.140625 21.113281 L 352.105469 21.902344 L 352.25 21.902344 L 355.566406 22.984375 L 355.636719 22.984375 L 355.710938 23.058594 L 358.519531 24.644531 L 358.59375 24.644531 L 358.664062 24.714844 L 361.1875 26.589844 L 363.492188 28.894531 L 365.078125 31.128906 L 365.148438 31.203125 L 365.148438 31.273438 L 366.375 33.796875 L 366.375 33.941406 L 367.3125 36.460938 L 367.3125 36.605469 L 367.960938 38.984375 L 367.960938 39.128906 L 368.25 41.652344 L 368.394531 44.03125 L 368.394531 518.402344 L 367.890625 522.800781 L 367.890625 522.945312 L 366.664062 527.195312 L 366.664062 527.269531 L 366.589844 527.339844 L 364.574219 530.945312 L 364.5 531.015625 L 364.429688 531.089844 L 361.761719 534.402344 L 361.691406 534.476562 L 361.617188 534.546875 L 358.304688 537.214844 L 358.230469 537.285156 L 358.160156 537.359375 L 354.410156 539.375 L 354.339844 539.449219 L 354.269531 539.449219 L 350.160156 540.671875 L 350.015625 540.671875 L 345.621094 541.179688 L 216.253906 541.179688 L 211.855469 540.671875 L 211.710938 540.671875 L 207.605469 539.449219 L 207.53125 539.449219 L 207.460938 539.375 L 203.714844 537.359375 L 203.570312 537.214844 L 200.398438 534.546875 L 200.324219 534.476562 L 200.253906 534.402344 L 197.585938 531.089844 L 197.515625 531.015625 L 197.441406 530.945312 L 195.425781 527.339844 L 195.351562 527.269531 L 195.351562 527.195312 L 194.128906 522.945312 L 194.128906 522.800781 L 193.625 518.402344 L 193.625 43.886719 L 194.488281 43.886719 L 193.625 43.886719 L 193.625 41.363281 L 194.128906 38.839844 L 194.777344 36.460938 L 195.570312 33.941406 L 195.570312 33.796875 L 196.792969 31.273438 L 196.867188 31.203125 L 196.9375 31.128906 L 198.667969 28.894531 L 200.542969 26.878906 L 200.613281 26.804688 L 200.6875 26.734375 L 203.207031 24.859375 L 203.28125 24.785156 L 203.351562 24.785156 L 206.164062 23.203125 L 206.234375 23.128906 L 206.308594 23.128906 L 209.765625 22.046875 L 209.910156 22.046875 L 213.660156 21.253906 L 213.804688 21.253906 L 218.34375 20.824219 M 218.34375 22.625 L 218.34375 21.6875 L 218.414062 22.554688 L 213.875 22.839844 L 213.804688 21.976562 L 214.019531 22.839844 L 210.269531 23.632812 L 210.054688 22.769531 L 210.34375 23.632812 L 206.882812 24.714844 L 206.597656 23.851562 L 207.027344 24.644531 L 204.21875 26.230469 L 203.785156 25.4375 L 204.289062 26.15625 L 201.765625 28.03125 L 201.261719 27.308594 L 201.910156 27.886719 L 200.039062 29.902344 L 199.390625 29.328125 L 200.109375 29.902344 L 198.378906 32.136719 L 197.660156 31.5625 L 198.453125 31.996094 L 197.226562 34.515625 L 196.433594 34.085938 L 197.296875 34.371094 L 196.507812 36.894531 L 195.640625 36.605469 L 196.507812 36.824219 L 195.859375 39.203125 L 194.992188 38.984375 L 195.859375 39.128906 L 195.351562 41.652344 L 194.488281 41.507812 L 195.351562 41.507812 L 195.351562 518.257812 L 194.488281 518.257812 L 195.351562 518.1875 L 195.859375 522.582031 L 194.992188 522.65625 L 195.859375 522.367188 L 197.082031 526.621094 L 196.21875 526.90625 L 197.011719 526.476562 L 199.027344 530.078125 L 198.234375 530.511719 L 198.957031 529.933594 L 201.621094 533.25 L 200.902344 533.828125 L 201.480469 533.105469 L 204.648438 535.773438 L 204.074219 536.492188 L 204.503906 535.699219 L 208.253906 537.71875 L 207.820312 538.511719 L 208.109375 537.648438 L 212.21875 538.871094 L 211.929688 539.738281 L 212 538.871094 L 216.398438 539.375 L 216.324219 540.242188 L 216.324219 539.375 L 345.476562 539.375 L 345.476562 540.242188 L 345.402344 539.375 L 349.800781 538.871094 L 349.871094 539.738281 L 349.582031 538.871094 L 353.691406 537.648438 L 353.980469 538.511719 L 353.546875 537.71875 L 357.292969 535.699219 L 357.726562 536.492188 L 357.152344 535.773438 L 360.464844 533.105469 L 361.042969 533.828125 L 360.320312 533.25 L 362.988281 529.933594 L 363.707031 530.511719 L 362.917969 530.078125 L 364.933594 526.476562 L 365.726562 526.90625 L 364.863281 526.621094 L 366.085938 522.367188 L 366.953125 522.65625 L 366.085938 522.582031 L 366.589844 518.1875 L 367.457031 518.257812 L 366.589844 518.257812 L 366.589844 43.886719 L 367.457031 43.886719 L 366.589844 43.957031 L 366.449219 41.578125 L 367.3125 41.507812 L 366.449219 41.652344 L 366.160156 39.128906 L 367.023438 38.984375 L 366.160156 39.203125 L 365.511719 36.824219 L 366.375 36.605469 L 365.511719 36.894531 L 364.574219 34.371094 L 365.4375 34.085938 L 364.644531 34.515625 L 363.421875 31.996094 L 364.214844 31.5625 L 363.492188 32.066406 L 361.90625 29.832031 L 362.628906 29.328125 L 361.980469 29.976562 L 359.890625 28.03125 L 360.539062 27.382812 L 360.035156 28.101562 L 357.511719 26.230469 L 358.015625 25.507812 L 357.582031 26.300781 L 354.773438 24.714844 L 355.203125 23.921875 L 354.917969 24.785156 L 351.601562 23.707031 L 351.890625 22.839844 L 351.746094 23.707031 L 347.78125 22.914062 L 347.925781 22.046875 L 347.851562 22.914062 L 343.457031 22.625 L 343.527344 21.761719 L 343.527344 22.625 Z M 218.34375 22.625 " clip-rule="nonzero"/></clipPath><clipPath id="c5176f368c"><path d="M 0.507812 0.621094 L 175.550781 0.621094 L 175.550781 521.199219 L 0.507812 521.199219 Z M 0.507812 0.621094 " clip-rule="nonzero"/></clipPath><clipPath id="1314da7bfe"><path d="M 25.414062 0.824219 L 150.601562 0.824219 L 154.996094 1.113281 L 155.140625 1.113281 L 159.105469 1.902344 L 159.25 1.902344 L 162.566406 2.984375 L 162.636719 2.984375 L 162.710938 3.058594 L 165.519531 4.644531 L 165.59375 4.644531 L 165.664062 4.714844 L 168.1875 6.589844 L 170.492188 8.894531 L 172.078125 11.128906 L 172.148438 11.203125 L 172.148438 11.273438 L 173.375 13.796875 L 173.375 13.941406 L 174.3125 16.460938 L 174.3125 16.605469 L 174.960938 18.984375 L 174.960938 19.128906 L 175.25 21.652344 L 175.394531 24.03125 L 175.394531 498.402344 L 174.890625 502.800781 L 174.890625 502.945312 L 173.664062 507.195312 L 173.664062 507.269531 L 173.589844 507.339844 L 171.574219 510.945312 L 171.5 511.015625 L 171.429688 511.089844 L 168.761719 514.402344 L 168.691406 514.476562 L 168.617188 514.546875 L 165.304688 517.214844 L 165.230469 517.285156 L 165.160156 517.359375 L 161.410156 519.375 L 161.339844 519.449219 L 161.269531 519.449219 L 157.160156 520.671875 L 157.015625 520.671875 L 152.621094 521.179688 L 23.253906 521.179688 L 18.855469 520.671875 L 18.710938 520.671875 L 14.605469 519.449219 L 14.53125 519.449219 L 14.460938 519.375 L 10.714844 517.359375 L 10.570312 517.214844 L 7.398438 514.546875 L 7.324219 514.476562 L 7.253906 514.402344 L 4.585938 511.089844 L 4.515625 511.015625 L 4.441406 510.945312 L 2.425781 507.339844 L 2.351562 507.269531 L 2.351562 507.195312 L 1.128906 502.945312 L 1.128906 502.800781 L 0.625 498.402344 L 0.625 23.886719 L 1.488281 23.886719 L 0.625 23.886719 L 0.625 21.363281 L 1.128906 18.839844 L 1.777344 16.460938 L 2.570312 13.941406 L 2.570312 13.796875 L 3.792969 11.273438 L 3.867188 11.203125 L 3.9375 11.128906 L 5.667969 8.894531 L 7.542969 6.878906 L 7.613281 6.804688 L 7.6875 6.734375 L 10.207031 4.859375 L 10.28125 4.785156 L 10.351562 4.785156 L 13.164062 3.203125 L 13.234375 3.128906 L 13.308594 3.128906 L 16.765625 2.046875 L 16.910156 2.046875 L 20.660156 1.253906 L 20.804688 1.253906 L 25.34375 0.824219 M 25.34375 2.625 L 25.34375 1.6875 L 25.414062 2.554688 L 20.875 2.839844 L 20.804688 1.976562 L 21.019531 2.839844 L 17.269531 3.632812 L 17.054688 2.769531 L 17.34375 3.632812 L 13.882812 4.714844 L 13.597656 3.851562 L 14.027344 4.644531 L 11.21875 6.230469 L 10.785156 5.4375 L 11.289062 6.15625 L 8.765625 8.03125 L 8.261719 7.308594 L 8.910156 7.886719 L 7.039062 9.902344 L 6.390625 9.328125 L 7.109375 9.902344 L 5.378906 12.136719 L 4.660156 11.5625 L 5.453125 11.996094 L 4.226562 14.515625 L 3.433594 14.085938 L 4.296875 14.371094 L 3.507812 16.894531 L 2.640625 16.605469 L 3.507812 16.824219 L 2.859375 19.203125 L 1.992188 18.984375 L 2.859375 19.128906 L 2.351562 21.652344 L 1.488281 21.507812 L 2.351562 21.507812 L 2.351562 498.257812 L 1.488281 498.257812 L 2.351562 498.1875 L 2.859375 502.582031 L 1.992188 502.65625 L 2.859375 502.367188 L 4.082031 506.621094 L 3.21875 506.90625 L 4.011719 506.476562 L 6.027344 510.078125 L 5.234375 510.511719 L 5.957031 509.933594 L 8.621094 513.25 L 7.902344 513.828125 L 8.480469 513.105469 L 11.648438 515.773438 L 11.074219 516.492188 L 11.503906 515.699219 L 15.253906 517.71875 L 14.820312 518.511719 L 15.109375 517.648438 L 19.21875 518.871094 L 18.929688 519.738281 L 19 518.871094 L 23.398438 519.375 L 23.324219 520.242188 L 23.324219 519.375 L 152.476562 519.375 L 152.476562 520.242188 L 152.402344 519.375 L 156.800781 518.871094 L 156.871094 519.738281 L 156.582031 518.871094 L 160.691406 517.648438 L 160.980469 518.511719 L 160.546875 517.71875 L 164.292969 515.699219 L 164.726562 516.492188 L 164.152344 515.773438 L 167.464844 513.105469 L 168.042969 513.828125 L 167.320312 513.25 L 169.988281 509.933594 L 170.707031 510.511719 L 169.917969 510.078125 L 171.933594 506.476562 L 172.726562 506.90625 L 171.863281 506.621094 L 173.085938 502.367188 L 173.953125 502.65625 L 173.085938 502.582031 L 173.589844 498.1875 L 174.457031 498.257812 L 173.589844 498.257812 L 173.589844 23.886719 L 174.457031 23.886719 L 173.589844 23.957031 L 173.449219 21.578125 L 174.3125 21.507812 L 173.449219 21.652344 L 173.160156 19.128906 L 174.023438 18.984375 L 173.160156 19.203125 L 172.511719 16.824219 L 173.375 16.605469 L 172.511719 16.894531 L 171.574219 14.371094 L 172.4375 14.085938 L 171.644531 14.515625 L 170.421875 11.996094 L 171.214844 11.5625 L 170.492188 12.066406 L 168.90625 9.832031 L 169.628906 9.328125 L 168.980469 9.976562 L 166.890625 8.03125 L 167.539062 7.382812 L 167.035156 8.101562 L 164.511719 6.230469 L 165.015625 5.507812 L 164.582031 6.300781 L 161.773438 4.714844 L 162.203125 3.921875 L 161.917969 4.785156 L 158.601562 3.707031 L 158.890625 2.839844 L 158.746094 3.707031 L 154.78125 2.914062 L 154.925781 2.046875 L 154.851562 2.914062 L 150.457031 2.625 L 150.527344 1.761719 L 150.527344 2.625 Z M 25.34375 2.625 " clip-rule="nonzero"/></clipPath><clipPath id="47f512347f"><rect x="0" width="176" y="0" height="522"/></clipPath><clipPath id="4205a36532"><path d="M 196.152344 402.265625 L 365.84375 402.265625 L 365.84375 539 L 196.152344 539 Z M 196.152344 402.265625 " clip-rule="nonzero"/></clipPath><clipPath id="2ebc31f87a"><path d="M 338.414062 538.367188 L 280.828125 480.421875 L 223.316406 538.367188 L 216.398438 538.367188 L 212.289062 538.078125 L 208.542969 536.855469 L 205.082031 534.980469 L 202.128906 532.601562 L 199.75 529.648438 L 197.875 526.1875 L 196.648438 522.441406 L 196.363281 518.332031 L 196.363281 487.484375 L 280.828125 402.441406 L 365.4375 487.484375 L 365.4375 518.257812 L 365.148438 522.367188 L 363.925781 526.113281 L 362.050781 529.574219 L 359.671875 532.53125 L 356.71875 534.90625 L 353.257812 536.78125 L 349.511719 538.007812 L 345.402344 538.296875 Z M 338.414062 538.367188 " clip-rule="nonzero"/></clipPath><clipPath id="6ee8f4e265"><path d="M 0.152344 0.363281 L 169.675781 0.363281 L 169.675781 136.5625 L 0.152344 136.5625 Z M 0.152344 0.363281 " clip-rule="nonzero"/></clipPath><clipPath id="6a49708aec"><path d="M 142.414062 136.367188 L 84.828125 78.421875 L 27.316406 136.367188 L 20.398438 136.367188 L 16.289062 136.078125 L 12.542969 134.855469 L 9.082031 132.980469 L 6.128906 130.601562 L 3.75 127.648438 L 1.875 124.1875 L 0.648438 120.441406 L 0.363281 116.332031 L 0.363281 85.484375 L 84.828125 0.441406 L 169.4375 85.484375 L 169.4375 116.257812 L 169.148438 120.367188 L 167.925781 124.113281 L 166.050781 127.574219 L 163.671875 130.53125 L 160.71875 132.90625 L 157.257812 134.78125 L 153.511719 136.007812 L 149.402344 136.296875 Z M 142.414062 136.367188 " clip-rule="nonzero"/></clipPath><clipPath id="86dcc74813"><rect x="0" width="170" y="0" height="137"/></clipPath><clipPath id="b81639ebc7"><path d="M 195.191406 401 L 366.808594 401 L 366.808594 540 L 195.191406 540 Z M 195.191406 401 " clip-rule="nonzero"/></clipPath><clipPath id="edf300bace"><path d="M 281.476562 401.863281 L 366.085938 486.910156 L 366.375 487.195312 L 366.375 518.332031 L 366.085938 522.441406 L 366.085938 522.65625 L 364.863281 526.402344 L 364.863281 526.476562 L 364.789062 526.546875 L 362.917969 530.007812 L 362.84375 530.078125 L 362.773438 530.152344 L 360.394531 533.105469 L 360.25 533.25 L 357.292969 535.628906 L 357.222656 535.699219 L 357.152344 535.773438 L 353.691406 537.648438 L 353.617188 537.71875 L 353.546875 537.71875 L 349.800781 538.945312 L 349.582031 538.945312 L 345.476562 539.230469 L 338.195312 539.230469 L 337.761719 539.015625 L 280.25 481 L 280.898438 480.351562 L 281.550781 481 L 223.964844 539.015625 L 223.675781 539.304688 L 216.398438 539.304688 L 212.289062 539.015625 L 212.074219 539.015625 L 208.324219 537.789062 L 208.253906 537.789062 L 208.179688 537.71875 L 204.722656 535.84375 L 204.648438 535.773438 L 204.578125 535.699219 L 201.621094 533.324219 L 201.550781 533.25 L 201.480469 533.179688 L 199.101562 530.222656 L 199.027344 530.152344 L 198.957031 530.078125 L 197.082031 526.621094 L 197.011719 526.546875 L 197.011719 526.476562 L 195.785156 522.726562 L 195.785156 522.511719 L 195.496094 518.402344 L 195.496094 487.269531 L 195.785156 486.980469 L 280.394531 401.9375 L 281.042969 401.289062 L 281.691406 401.9375 M 280.394531 403.234375 L 281.042969 402.585938 L 281.691406 403.234375 L 196.867188 488.132812 L 196.21875 487.484375 L 197.082031 487.484375 L 197.082031 518.257812 L 196.21875 518.257812 L 197.082031 518.1875 L 197.371094 522.296875 L 196.507812 522.367188 L 197.371094 522.078125 L 198.597656 525.828125 L 197.730469 526.113281 L 198.523438 525.683594 L 200.398438 529.140625 L 199.605469 529.574219 L 200.324219 528.996094 L 202.703125 531.953125 L 201.984375 532.53125 L 202.558594 531.808594 L 205.515625 534.1875 L 204.9375 534.90625 L 205.371094 534.113281 L 208.828125 535.988281 L 208.398438 536.78125 L 208.6875 535.917969 L 212.433594 537.140625 L 212.144531 538.007812 L 212.21875 537.140625 L 216.324219 537.429688 L 216.253906 538.296875 L 216.253906 537.429688 L 223.171875 537.429688 L 223.171875 538.296875 L 222.523438 537.648438 L 280.035156 479.628906 L 280.683594 478.980469 L 281.332031 479.628906 L 338.84375 537.648438 L 338.195312 538.296875 L 338.195312 537.429688 L 345.113281 537.429688 L 345.113281 538.296875 L 345.042969 537.429688 L 349.152344 537.140625 L 349.222656 538.007812 L 348.933594 537.140625 L 352.683594 535.917969 L 352.96875 536.78125 L 352.539062 535.988281 L 355.996094 534.113281 L 356.429688 534.90625 L 355.851562 534.1875 L 358.808594 531.808594 L 359.382812 532.53125 L 358.664062 531.953125 L 361.042969 528.996094 L 361.761719 529.574219 L 360.96875 529.140625 L 362.84375 525.683594 L 363.636719 526.113281 L 362.773438 525.828125 L 363.996094 522.078125 L 364.863281 522.367188 L 363.996094 522.296875 L 364.285156 518.1875 L 365.148438 518.257812 L 364.285156 518.257812 L 364.285156 487.484375 L 365.148438 487.484375 L 364.5 488.132812 L 279.890625 403.089844 Z M 280.394531 403.234375 " clip-rule="nonzero"/></clipPath><clipPath id="e30b8cd975"><path d="M 0.425781 0.164062 L 171.394531 0.164062 L 171.394531 138.519531 L 0.425781 138.519531 Z M 0.425781 0.164062 " clip-rule="nonzero"/></clipPath><clipPath id="c426c7e2b5"><path d="M 86.476562 0.863281 L 171.085938 85.910156 L 171.375 86.195312 L 171.375 117.332031 L 171.085938 121.441406 L 171.085938 121.65625 L 169.863281 125.402344 L 169.863281 125.476562 L 169.789062 125.546875 L 167.917969 129.007812 L 167.84375 129.078125 L 167.773438 129.152344 L 165.394531 132.105469 L 165.25 132.25 L 162.292969 134.628906 L 162.222656 134.699219 L 162.152344 134.773438 L 158.691406 136.648438 L 158.617188 136.71875 L 158.546875 136.71875 L 154.800781 137.945312 L 154.582031 137.945312 L 150.476562 138.230469 L 143.195312 138.230469 L 142.761719 138.015625 L 85.25 80 L 85.898438 79.351562 L 86.550781 80 L 28.964844 138.015625 L 28.675781 138.304688 L 21.398438 138.304688 L 17.289062 138.015625 L 17.074219 138.015625 L 13.324219 136.789062 L 13.253906 136.789062 L 13.179688 136.71875 L 9.722656 134.84375 L 9.648438 134.773438 L 9.578125 134.699219 L 6.621094 132.324219 L 6.550781 132.25 L 6.480469 132.179688 L 4.101562 129.222656 L 4.027344 129.152344 L 3.957031 129.078125 L 2.082031 125.621094 L 2.011719 125.546875 L 2.011719 125.476562 L 0.785156 121.726562 L 0.785156 121.511719 L 0.496094 117.402344 L 0.496094 86.269531 L 0.785156 85.980469 L 85.394531 0.9375 L 86.042969 0.289062 L 86.691406 0.9375 M 85.394531 2.234375 L 86.042969 1.585938 L 86.691406 2.234375 L 1.867188 87.132812 L 1.21875 86.484375 L 2.082031 86.484375 L 2.082031 117.257812 L 1.21875 117.257812 L 2.082031 117.1875 L 2.371094 121.296875 L 1.507812 121.367188 L 2.371094 121.078125 L 3.597656 124.828125 L 2.730469 125.113281 L 3.523438 124.683594 L 5.398438 128.140625 L 4.605469 128.574219 L 5.324219 127.996094 L 7.703125 130.953125 L 6.984375 131.53125 L 7.558594 130.808594 L 10.515625 133.1875 L 9.9375 133.90625 L 10.371094 133.113281 L 13.828125 134.988281 L 13.398438 135.78125 L 13.6875 134.917969 L 17.433594 136.140625 L 17.144531 137.007812 L 17.21875 136.140625 L 21.324219 136.429688 L 21.253906 137.296875 L 21.253906 136.429688 L 28.171875 136.429688 L 28.171875 137.296875 L 27.523438 136.648438 L 85.035156 78.628906 L 85.683594 77.980469 L 86.332031 78.628906 L 143.84375 136.648438 L 143.195312 137.296875 L 143.195312 136.429688 L 150.113281 136.429688 L 150.113281 137.296875 L 150.042969 136.429688 L 154.152344 136.140625 L 154.222656 137.007812 L 153.933594 136.140625 L 157.683594 134.917969 L 157.96875 135.78125 L 157.539062 134.988281 L 160.996094 133.113281 L 161.429688 133.90625 L 160.851562 133.1875 L 163.808594 130.808594 L 164.382812 131.53125 L 163.664062 130.953125 L 166.042969 127.996094 L 166.761719 128.574219 L 165.96875 128.140625 L 167.84375 124.683594 L 168.636719 125.113281 L 167.773438 124.828125 L 168.996094 121.078125 L 169.863281 121.367188 L 168.996094 121.296875 L 169.285156 117.1875 L 170.148438 117.257812 L 169.285156 117.257812 L 169.285156 86.484375 L 170.148438 86.484375 L 169.5 87.132812 L 84.890625 2.089844 Z M 85.394531 2.234375 " clip-rule="nonzero"/></clipPath><clipPath id="6f8fc71575"><rect x="0" width="172" y="0" height="139"/></clipPath><clipPath id="a57a35e633"><path d="M 196.152344 75.417969 L 365.84375 75.417969 L 365.84375 243 L 196.152344 243 Z M 196.152344 75.417969 " clip-rule="nonzero"/></clipPath><clipPath id="7de64b0ef3"><path d="M 196.21875 160.496094 L 280.828125 75.957031 L 365.4375 160.351562 L 365.4375 242.371094 L 280.828125 157.328125 L 196.21875 242.515625 Z M 196.21875 160.496094 " clip-rule="nonzero"/></clipPath><clipPath id="65bf2f7c2d"><path d="M 0.152344 0.773438 L 169.675781 0.773438 L 169.675781 167.664062 L 0.152344 167.664062 Z M 0.152344 0.773438 " clip-rule="nonzero"/></clipPath><clipPath id="7ec6d4d89c"><path d="M 0.21875 85.496094 L 84.828125 0.957031 L 169.4375 85.351562 L 169.4375 167.371094 L 84.828125 82.328125 L 0.21875 167.515625 Z M 0.21875 85.496094 " clip-rule="nonzero"/></clipPath><clipPath id="117757317c"><rect x="0" width="170" y="0" height="168"/></clipPath><clipPath id="459295d6e2"><path d="M 195.191406 75 L 366.808594 75 L 366.808594 245 L 195.191406 245 Z M 195.191406 75 " clip-rule="nonzero"/></clipPath><clipPath id="117839ab35"><path d="M 280.828125 75.019531 L 281.1875 75.019531 L 281.476562 75.308594 L 366.085938 159.703125 L 366.375 159.992188 L 366.375 244.53125 L 364.863281 243.019531 L 280.25 157.976562 L 280.898438 157.328125 L 281.550781 157.976562 L 196.867188 243.164062 L 195.351562 244.75 L 195.351562 160.136719 L 280.46875 75.019531 L 280.828125 75.019531 M 280.828125 76.824219 L 280.828125 75.957031 L 281.476562 76.605469 L 196.867188 161.144531 L 196.21875 160.496094 L 197.082031 160.496094 L 197.082031 242.515625 L 196.21875 242.515625 L 195.570312 241.867188 L 280.179688 156.675781 L 280.828125 156.027344 L 281.476562 156.675781 L 366.085938 241.722656 L 365.4375 242.371094 L 364.574219 242.371094 L 364.574219 160.351562 L 365.4375 160.351562 L 364.789062 161 L 280.179688 76.605469 L 280.828125 75.957031 Z M 280.828125 76.824219 " clip-rule="nonzero"/></clipPath><clipPath id="25d101607d"><path d="M 0.191406 0 L 171.394531 0 L 171.394531 169.824219 L 0.191406 169.824219 Z M 0.191406 0 " clip-rule="nonzero"/></clipPath><clipPath id="698a0dd5fd"><path d="M 85.828125 0.0195312 L 86.1875 0.0195312 L 86.476562 0.308594 L 171.085938 84.703125 L 171.375 84.992188 L 171.375 169.53125 L 169.863281 168.019531 L 85.25 82.976562 L 85.898438 82.328125 L 86.550781 82.976562 L 1.867188 168.164062 L 0.351562 169.75 L 0.351562 85.136719 L 85.46875 0.0195312 L 85.828125 0.0195312 M 85.828125 1.824219 L 85.828125 0.957031 L 86.476562 1.605469 L 1.867188 86.144531 L 1.21875 85.496094 L 2.082031 85.496094 L 2.082031 167.515625 L 1.21875 167.515625 L 0.570312 166.867188 L 85.179688 81.675781 L 85.828125 81.027344 L 86.476562 81.675781 L 171.085938 166.722656 L 170.4375 167.371094 L 169.574219 167.371094 L 169.574219 85.351562 L 170.4375 85.351562 L 169.789062 86 L 85.179688 1.605469 L 85.828125 0.957031 Z M 85.828125 1.824219 " clip-rule="nonzero"/></clipPath><clipPath id="e8acd396b7"><rect x="0" width="172" y="0" height="170"/></clipPath><clipPath id="4a88c045e5"><path d="M 196.152344 239 L 365.84375 239 L 365.84375 406 L 196.152344 406 Z M 196.152344 239 " clip-rule="nonzero"/></clipPath><clipPath id="7d68defd17"><path d="M 196.433594 323.738281 L 280.972656 239.054688 L 365.726562 323.59375 L 365.726562 405.46875 L 280.972656 320.566406 L 196.433594 405.613281 Z M 196.433594 323.738281 " clip-rule="nonzero"/></clipPath><clipPath id="835533d451"><path d="M 0.386719 0 L 169.84375 0 L 169.84375 166.71875 L 0.386719 166.71875 Z M 0.386719 0 " clip-rule="nonzero"/></clipPath><clipPath id="2ee15d1166"><path d="M 0.433594 84.738281 L 84.972656 0.0546875 L 169.726562 84.59375 L 169.726562 166.46875 L 84.972656 81.566406 L 0.433594 166.613281 Z M 0.433594 84.738281 " clip-rule="nonzero"/></clipPath><clipPath id="33e09330c0"><rect x="0" width="170" y="0" height="167"/></clipPath><clipPath id="05b9712506"><path d="M 195.191406 237.394531 L 366.808594 237.394531 L 366.808594 408 L 195.191406 408 Z M 195.191406 237.394531 " clip-rule="nonzero"/></clipPath><clipPath id="78a07b577d"><path d="M 281.621094 238.40625 L 366.375 322.945312 L 366.664062 323.234375 L 366.664062 407.628906 L 365.148438 406.117188 L 280.394531 321.214844 L 281.042969 320.566406 L 281.691406 321.214844 L 197.082031 406.261719 L 195.570312 407.773438 L 195.570312 323.378906 L 195.859375 323.089844 L 280.394531 238.40625 L 281.042969 237.757812 L 281.691406 238.40625 M 280.394531 239.703125 L 281.042969 239.054688 L 281.691406 239.703125 L 197.082031 324.386719 L 196.433594 323.738281 L 197.296875 323.738281 L 197.296875 405.613281 L 196.433594 405.613281 L 195.785156 404.964844 L 280.394531 319.917969 L 281.042969 319.269531 L 281.691406 319.917969 L 366.375 404.820312 L 365.726562 405.46875 L 364.863281 405.46875 L 364.863281 323.59375 L 365.726562 323.59375 L 365.078125 324.242188 Z M 280.394531 239.703125 " clip-rule="nonzero"/></clipPath><clipPath id="a189143e00"><path d="M 0.425781 0.628906 L 171.808594 0.628906 L 171.808594 170.878906 L 0.425781 170.878906 Z M 0.425781 0.628906 " clip-rule="nonzero"/></clipPath><clipPath id="8d263600f8"><path d="M 86.621094 1.40625 L 171.375 85.945312 L 171.664062 86.234375 L 171.664062 170.628906 L 170.148438 169.117188 L 85.394531 84.214844 L 86.042969 83.566406 L 86.691406 84.214844 L 2.082031 169.261719 L 0.570312 170.773438 L 0.570312 86.378906 L 0.859375 86.089844 L 85.394531 1.40625 L 86.042969 0.757812 L 86.691406 1.40625 M 85.394531 2.703125 L 86.042969 2.054688 L 86.691406 2.703125 L 2.082031 87.386719 L 1.433594 86.738281 L 2.296875 86.738281 L 2.296875 168.613281 L 1.433594 168.613281 L 0.785156 167.964844 L 85.394531 82.917969 L 86.042969 82.269531 L 86.691406 82.917969 L 171.375 167.820312 L 170.726562 168.46875 L 169.863281 168.46875 L 169.863281 86.59375 L 170.726562 86.59375 L 170.078125 87.242188 Z M 85.394531 2.703125 " clip-rule="nonzero"/></clipPath><clipPath id="4b75095f1a"><rect x="0" width="172" y="0" height="171"/></clipPath><clipPath id="9dc5da937e"><path d="M 310 23.351562 L 365.84375 23.351562 L 365.84375 78.308594 L 310 78.308594 Z M 310 23.351562 " clip-rule="nonzero"/></clipPath><clipPath id="36d35cedeb"><path d="M 310.882812 23.632812 L 345.476562 23.632812 L 349.4375 24.136719 L 353.1875 25.21875 L 356.644531 27.09375 L 359.601562 29.617188 L 362.125 32.570312 L 363.996094 35.886719 L 365.078125 39.851562 L 365.582031 43.8125 L 365.582031 78.191406 Z M 310.882812 23.632812 " clip-rule="nonzero"/></clipPath><clipPath id="db928cfb9e"><path d="M 0.765625 0.5 L 55.675781 0.5 L 55.675781 55.308594 L 0.765625 55.308594 Z M 0.765625 0.5 " clip-rule="nonzero"/></clipPath><clipPath id="6b581d9c2c"><path d="M 0.882812 0.632812 L 35.476562 0.632812 L 39.4375 1.136719 L 43.1875 2.21875 L 46.644531 4.09375 L 49.601562 6.617188 L 52.125 9.570312 L 53.996094 12.886719 L 55.078125 16.851562 L 55.582031 20.8125 L 55.582031 55.191406 Z M 0.882812 0.632812 " clip-rule="nonzero"/></clipPath><clipPath id="f343416e57"><rect x="0" width="56" y="0" height="56"/></clipPath><clipPath id="3e3e679ddd"><path d="M 308 22.390625 L 366.808594 22.390625 L 366.808594 81 L 308 81 Z M 308 22.390625 " clip-rule="nonzero"/></clipPath><clipPath id="36574492aa"><path d="M 310.882812 22.695312 L 345.621094 22.695312 L 349.582031 23.203125 L 349.726562 23.203125 L 353.476562 24.28125 L 353.546875 24.28125 L 353.617188 24.355469 L 357.078125 26.230469 L 357.152344 26.300781 L 357.222656 26.371094 L 360.175781 28.894531 L 360.320312 29.039062 L 362.84375 31.996094 L 362.917969 32.066406 L 362.988281 32.136719 L 364.863281 35.453125 L 364.933594 35.527344 L 364.933594 35.597656 L 366.015625 39.5625 L 366.015625 39.707031 L 366.519531 43.667969 L 366.519531 80.355469 L 365.007812 78.839844 L 310.304688 24.28125 L 308.792969 22.769531 L 310.953125 22.769531 M 310.953125 24.570312 L 310.953125 23.632812 L 311.601562 22.984375 L 366.304688 77.542969 L 365.65625 78.191406 L 364.789062 78.191406 L 364.789062 43.742188 L 365.65625 43.742188 L 364.789062 43.8125 L 364.285156 39.851562 L 365.148438 39.777344 L 364.285156 39.992188 L 363.203125 36.03125 L 364.070312 35.8125 L 363.277344 36.246094 L 361.402344 32.929688 L 362.195312 32.5 L 361.476562 33.074219 L 358.953125 30.121094 L 359.671875 29.542969 L 359.097656 30.265625 L 356.140625 27.742188 L 356.71875 27.019531 L 356.285156 27.8125 L 352.828125 25.941406 L 353.257812 25.148438 L 353.042969 26.011719 L 349.292969 24.929688 L 349.511719 24.066406 L 349.4375 24.929688 L 345.476562 24.425781 L 345.546875 23.5625 L 345.546875 24.425781 L 310.953125 24.425781 Z M 310.953125 24.570312 " clip-rule="nonzero"/></clipPath><clipPath id="c0d9f4b065"><path d="M 0.605469 0.539062 L 58.632812 0.539062 L 58.632812 58.570312 L 0.605469 58.570312 Z M 0.605469 0.539062 " clip-rule="nonzero"/></clipPath><clipPath id="5a65e4a62d"><path d="M 2.882812 0.695312 L 37.621094 0.695312 L 41.582031 1.203125 L 41.726562 1.203125 L 45.476562 2.28125 L 45.546875 2.28125 L 45.617188 2.355469 L 49.078125 4.230469 L 49.152344 4.300781 L 49.222656 4.371094 L 52.175781 6.894531 L 52.320312 7.039062 L 54.84375 9.996094 L 54.917969 10.066406 L 54.988281 10.136719 L 56.863281 13.453125 L 56.933594 13.527344 L 56.933594 13.597656 L 58.015625 17.5625 L 58.015625 17.707031 L 58.519531 21.667969 L 58.519531 58.355469 L 57.007812 56.839844 L 2.304688 2.28125 L 0.792969 0.769531 L 2.953125 0.769531 M 2.953125 2.570312 L 2.953125 1.632812 L 3.601562 0.984375 L 58.304688 55.542969 L 57.65625 56.191406 L 56.789062 56.191406 L 56.789062 21.742188 L 57.65625 21.742188 L 56.789062 21.8125 L 56.285156 17.851562 L 57.148438 17.777344 L 56.285156 17.992188 L 55.203125 14.03125 L 56.070312 13.8125 L 55.277344 14.246094 L 53.402344 10.929688 L 54.195312 10.5 L 53.476562 11.074219 L 50.953125 8.121094 L 51.671875 7.542969 L 51.097656 8.265625 L 48.140625 5.742188 L 48.71875 5.019531 L 48.285156 5.8125 L 44.828125 3.941406 L 45.257812 3.148438 L 45.042969 4.011719 L 41.292969 2.929688 L 41.511719 2.066406 L 41.4375 2.929688 L 37.476562 2.425781 L 37.546875 1.5625 L 37.546875 2.425781 L 2.953125 2.425781 Z M 2.953125 2.570312 " clip-rule="nonzero"/></clipPath><clipPath id="2cbe856d8f"><rect x="0" width="59" y="0" height="59"/></clipPath><clipPath id="b5fc77e42b"><path d="M 196.152344 23.351562 L 252 23.351562 L 252 78.308594 L 196.152344 78.308594 Z M 196.152344 23.351562 " clip-rule="nonzero"/></clipPath><clipPath id="430584d22c"><path d="M 196.433594 43.742188 L 196.9375 39.777344 L 198.019531 35.8125 L 199.894531 32.5 L 202.414062 29.542969 L 205.371094 27.019531 L 208.6875 25.148438 L 212.433594 24.066406 L 216.542969 23.5625 L 251.136719 23.5625 L 196.433594 78.121094 Z M 196.433594 43.742188 " clip-rule="nonzero"/></clipPath><clipPath id="1ed564927a"><path d="M 0.386719 0.5 L 55.296875 0.5 L 55.296875 55.171875 L 0.386719 55.171875 Z M 0.386719 0.5 " clip-rule="nonzero"/></clipPath><clipPath id="5057c24a45"><path d="M 0.433594 20.742188 L 0.9375 16.777344 L 2.019531 12.8125 L 3.894531 9.5 L 6.414062 6.542969 L 9.371094 4.019531 L 12.6875 2.148438 L 16.433594 1.066406 L 20.542969 0.5625 L 55.136719 0.5625 L 0.433594 55.121094 Z M 0.433594 20.742188 " clip-rule="nonzero"/></clipPath><clipPath id="6fe9481dd6"><rect x="0" width="56" y="0" height="56"/></clipPath><clipPath id="338d5d1d75"><path d="M 195.191406 22.390625 L 254 22.390625 L 254 81 L 195.191406 81 Z M 195.191406 22.390625 " clip-rule="nonzero"/></clipPath><clipPath id="3ebcbfe749"><path d="M 216.542969 22.695312 L 253.296875 22.695312 L 251.785156 24.210938 L 197.082031 78.769531 L 195.570312 80.28125 L 195.570312 43.597656 L 196.074219 39.632812 L 196.074219 39.488281 L 197.15625 35.527344 L 197.15625 35.453125 L 197.226562 35.382812 L 199.101562 32.066406 L 199.246094 31.921875 L 201.765625 28.96875 L 201.910156 28.824219 L 204.867188 26.300781 L 205.011719 26.15625 L 208.324219 24.28125 L 208.398438 24.210938 L 208.46875 24.210938 L 212.21875 23.128906 L 212.363281 23.128906 L 216.46875 22.625 L 216.613281 22.625 M 216.613281 24.425781 L 216.613281 23.632812 L 216.6875 24.5 L 212.578125 25.003906 L 212.503906 24.136719 L 212.722656 25.003906 L 208.972656 26.085938 L 208.757812 25.21875 L 209.191406 26.011719 L 205.875 27.886719 L 205.441406 27.09375 L 206.019531 27.8125 L 203.0625 30.335938 L 202.488281 29.617188 L 203.207031 30.191406 L 200.6875 33.148438 L 199.964844 32.570312 L 200.757812 33.003906 L 198.882812 36.320312 L 198.089844 35.886719 L 198.957031 36.101562 L 197.875 40.066406 L 197.011719 39.851562 L 197.875 39.921875 L 197.371094 43.886719 L 196.507812 43.8125 L 197.371094 43.8125 L 197.371094 78.191406 L 196.433594 78.191406 L 195.785156 77.542969 L 250.488281 22.984375 L 251.136719 23.632812 L 251.136719 24.5 L 216.542969 24.5 Z M 216.613281 24.425781 " clip-rule="nonzero"/></clipPath><clipPath id="74a13881f2"><path d="M 0.425781 0.539062 L 58.453125 0.539062 L 58.453125 58.328125 L 0.425781 58.328125 Z M 0.425781 0.539062 " clip-rule="nonzero"/></clipPath><clipPath id="a4ace97fa8"><path d="M 21.542969 0.695312 L 58.296875 0.695312 L 56.785156 2.210938 L 2.082031 56.769531 L 0.570312 58.28125 L 0.570312 21.597656 L 1.074219 17.632812 L 1.074219 17.488281 L 2.15625 13.527344 L 2.15625 13.453125 L 2.226562 13.382812 L 4.101562 10.066406 L 4.246094 9.921875 L 6.765625 6.96875 L 6.910156 6.824219 L 9.867188 4.300781 L 10.011719 4.15625 L 13.324219 2.28125 L 13.398438 2.210938 L 13.46875 2.210938 L 17.21875 1.128906 L 17.363281 1.128906 L 21.46875 0.625 L 21.613281 0.625 M 21.613281 2.425781 L 21.613281 1.632812 L 21.6875 2.5 L 17.578125 3.003906 L 17.503906 2.136719 L 17.722656 3.003906 L 13.972656 4.085938 L 13.757812 3.21875 L 14.191406 4.011719 L 10.875 5.886719 L 10.441406 5.09375 L 11.019531 5.8125 L 8.0625 8.335938 L 7.488281 7.617188 L 8.207031 8.191406 L 5.6875 11.148438 L 4.964844 10.570312 L 5.757812 11.003906 L 3.882812 14.320312 L 3.089844 13.886719 L 3.957031 14.101562 L 2.875 18.066406 L 2.011719 17.851562 L 2.875 17.921875 L 2.371094 21.886719 L 1.507812 21.8125 L 2.371094 21.8125 L 2.371094 56.191406 L 1.433594 56.191406 L 0.785156 55.542969 L 55.488281 0.984375 L 56.136719 1.632812 L 56.136719 2.5 L 21.542969 2.5 Z M 21.613281 2.425781 " clip-rule="nonzero"/></clipPath><clipPath id="79c23be85f"><rect x="0" width="59" y="0" height="59"/></clipPath></defs><g clip-path="url(#6881e66c21)"><g clip-path="url(#1f7b04d68a)"><g transform="matrix(1, 0, 0, 1, 194, 21)"><g clip-path="url(#2dd9a5de82)"><g clip-path="url(#da7b475c23)"><g clip-path="url(#7818b496ab)"><rect x="-317.75" width="810" fill="#ff7021" height="809.999974" y="-144.749996" fill-opacity="1"/></g></g></g></g></g></g><g clip-path="url(#beb2057001)"><g clip-path="url(#6c9b4a4163)"><g transform="matrix(1, 0, 0, 1, 193, 20)"><g clip-path="url(#47f512347f)"><g clip-path="url(#c5176f368c)"><g clip-path="url(#1314da7bfe)"><rect x="-316.75" width="810" fill="#ff7021" height="809.999974" y="-143.749996" fill-opacity="1"/></g></g></g></g></g></g><g clip-path="url(#4205a36532)"><g clip-path="url(#2ebc31f87a)"><g transform="matrix(1, 0, 0, 1, 196, 402)"><g clip-path="url(#86dcc74813)"><g clip-path="url(#6ee8f4e265)"><g clip-path="url(#6a49708aec)"><rect x="-319.75" width="810" fill="#000000" height="809.999974" y="-525.749996" fill-opacity="1"/></g></g></g></g></g></g><g clip-path="url(#b81639ebc7)"><g clip-path="url(#edf300bace)"><g transform="matrix(1, 0, 0, 1, 195, 401)"><g clip-path="url(#6f8fc71575)"><g clip-path="url(#e30b8cd975)"><g clip-path="url(#c426c7e2b5)"><rect x="-318.75" width="810" fill="#000000" height="809.999974" y="-524.749996" fill-opacity="1"/></g></g></g></g></g></g><g clip-path="url(#a57a35e633)"><g clip-path="url(#7de64b0ef3)"><g transform="matrix(1, 0, 0, 1, 196, 75)"><g clip-path="url(#117757317c)"><g clip-path="url(#65bf2f7c2d)"><g clip-path="url(#7ec6d4d89c)"><rect x="-319.75" width="810" fill="#000000" height="809.999974" y="-198.749996" fill-opacity="1"/></g></g></g></g></g></g><g clip-path="url(#459295d6e2)"><g clip-path="url(#117839ab35)"><g transform="matrix(1, 0, 0, 1, 195, 75)"><g clip-path="url(#e8acd396b7)"><g clip-path="url(#25d101607d)"><g clip-path="url(#698a0dd5fd)"><rect x="-318.75" width="810" fill="#000000" height="809.999974" y="-198.749996" fill-opacity="1"/></g></g></g></g></g></g><g clip-path="url(#4a88c045e5)"><g clip-path="url(#7d68defd17)"><g transform="matrix(1, 0, 0, 1, 196, 239)"><g clip-path="url(#33e09330c0)"><g clip-path="url(#835533d451)"><g clip-path="url(#2ee15d1166)"><rect x="-319.75" width="810" fill="#000000" height="809.999974" y="-362.749996" fill-opacity="1"/></g></g></g></g></g></g><g clip-path="url(#05b9712506)"><g clip-path="url(#78a07b577d)"><g transform="matrix(1, 0, 0, 1, 195, 237)"><g clip-path="url(#4b75095f1a)"><g clip-path="url(#a189143e00)"><g clip-path="url(#8d263600f8)"><rect x="-318.75" width="810" fill="#000000" height="809.999974" y="-360.749996" fill-opacity="1"/></g></g></g></g></g></g><g clip-path="url(#9dc5da937e)"><g clip-path="url(#36d35cedeb)"><g transform="matrix(1, 0, 0, 1, 310, 23)"><g clip-path="url(#f343416e57)"><g clip-path="url(#db928cfb9e)"><g clip-path="url(#6b581d9c2c)"><rect x="-433.75" width="810" fill="#000000" height="809.999974" y="-146.749996" fill-opacity="1"/></g></g></g></g></g></g><g clip-path="url(#3e3e679ddd)"><g clip-path="url(#36574492aa)"><g transform="matrix(1, 0, 0, 1, 308, 22)"><g clip-path="url(#2cbe856d8f)"><g clip-path="url(#c0d9f4b065)"><g clip-path="url(#5a65e4a62d)"><rect x="-431.75" width="810" fill="#000000" height="809.999974" y="-145.749996" fill-opacity="1"/></g></g></g></g></g></g><g clip-path="url(#b5fc77e42b)"><g clip-path="url(#430584d22c)"><g transform="matrix(1, 0, 0, 1, 196, 23)"><g clip-path="url(#6fe9481dd6)"><g clip-path="url(#1ed564927a)"><g clip-path="url(#5057c24a45)"><rect x="-319.75" width="810" fill="#000000" height="809.999974" y="-146.749996" fill-opacity="1"/></g></g></g></g></g></g><g clip-path="url(#338d5d1d75)"><g clip-path="url(#3ebcbfe749)"><g transform="matrix(1, 0, 0, 1, 195, 22)"><g clip-path="url(#79c23be85f)"><g clip-path="url(#74a13881f2)"><g clip-path="url(#a4ace97fa8)"><rect x="-318.75" width="810" fill="#000000" height="809.999974" y="-145.749996" fill-opacity="1"/></g></g></g></g></g></g></svg>