<svg xmlns="http://www.w3.org/2000/svg" xmlns:xlink="http://www.w3.org/1999/xlink" width="750" zoomAndPan="magnify" viewBox="0 0 562.5 562.499982" height="750" preserveAspectRatio="xMidYMid meet" version="1.0"><defs><clipPath id="706a7ed1d3"><path d="M 63.449219 9.101562 L 498.550781 9.101562 L 498.550781 552.976562 L 63.449219 552.976562 Z M 63.449219 9.101562 " clip-rule="nonzero"/></clipPath><clipPath id="4ace748852"><path d="M 91.082031 552.78125 L 86.167969 552.289062 L 81.546875 551.109375 L 77.222656 548.949219 L 73.292969 546.296875 L 69.949219 542.855469 L 67.296875 539.023438 L 65.136719 534.699219 L 63.957031 530.078125 L 63.464844 524.96875 L 63.464844 36.730469 L 63.957031 31.816406 L 65.136719 27.199219 L 67.296875 22.875 L 69.949219 18.945312 L 73.292969 15.601562 L 77.222656 12.949219 L 81.546875 10.785156 L 86.167969 9.507812 L 91.082031 9.214844 L 470.722656 9.214844 L 475.636719 9.507812 L 480.253906 10.785156 L 484.679688 12.949219 L 488.511719 15.601562 L 491.851562 18.945312 L 494.605469 22.875 L 496.570312 27.199219 L 497.847656 31.816406 L 498.339844 36.730469 L 498.339844 525.066406 L 497.847656 530.179688 L 496.570312 534.796875 L 494.605469 539.121094 L 491.851562 542.953125 L 488.511719 546.394531 L 484.679688 549.046875 L 480.253906 551.210938 L 475.636719 552.386719 L 470.722656 552.878906 Z M 91.082031 552.78125 " clip-rule="nonzero"/></clipPath><clipPath id="b7b72e51cf"><path d="M 0.449219 0.113281 L 435.515625 0.113281 L 435.515625 543.949219 L 0.449219 543.949219 Z M 0.449219 0.113281 " clip-rule="nonzero"/></clipPath><clipPath id="8d572ea13e"><path d="M 28.082031 543.78125 L 23.167969 543.289062 L 18.546875 542.109375 L 14.222656 539.949219 L 10.292969 537.296875 L 6.949219 533.855469 L 4.296875 530.023438 L 2.136719 525.699219 L 0.957031 521.078125 L 0.464844 515.96875 L 0.464844 27.730469 L 0.957031 22.816406 L 2.136719 18.199219 L 4.296875 13.875 L 6.949219 9.945312 L 10.292969 6.601562 L 14.222656 3.949219 L 18.546875 1.785156 L 23.167969 0.507812 L 28.082031 0.214844 L 407.722656 0.214844 L 412.636719 0.507812 L 417.253906 1.785156 L 421.679688 3.949219 L 425.511719 6.601562 L 428.851562 9.945312 L 431.605469 13.875 L 433.570312 18.199219 L 434.847656 22.816406 L 435.339844 27.730469 L 435.339844 516.066406 L 434.847656 521.179688 L 433.570312 525.796875 L 431.605469 530.121094 L 428.851562 533.953125 L 425.511719 537.394531 L 421.679688 540.046875 L 417.253906 542.210938 L 412.636719 543.386719 L 407.722656 543.878906 Z M 28.082031 543.78125 " clip-rule="nonzero"/></clipPath><clipPath id="3ddfee8a1f"><rect x="0" width="436" y="0" height="544"/></clipPath><clipPath id="d3b7daadd8"><path d="M 62 8 L 500 8 L 500 555 L 62 555 Z M 62 8 " clip-rule="nonzero"/></clipPath><clipPath id="746fa0493b"><path d="M 91.082031 8.035156 L 470.722656 8.035156 L 475.636719 8.328125 L 475.832031 8.328125 L 480.453125 9.609375 L 480.648438 9.609375 L 485.070312 11.769531 L 485.167969 11.769531 L 485.269531 11.867188 L 489.101562 14.519531 L 489.199219 14.621094 L 492.636719 18.058594 L 492.738281 18.15625 L 492.835938 18.257812 L 495.585938 22.1875 L 495.683594 22.285156 L 495.683594 22.382812 L 497.652344 26.707031 L 497.652344 26.902344 L 498.929688 31.523438 L 498.929688 31.71875 L 499.417969 36.632812 L 499.417969 525.265625 L 498.929688 530.375 L 498.929688 530.570312 L 497.652344 535.191406 L 497.652344 535.386719 L 495.683594 539.710938 L 495.488281 539.90625 L 492.738281 543.738281 L 492.738281 543.839844 L 492.636719 543.9375 L 489.296875 547.375 L 489.199219 547.476562 L 489.101562 547.574219 L 485.269531 550.226562 L 485.167969 550.324219 L 485.070312 550.324219 L 480.648438 552.488281 L 480.550781 552.585938 L 480.453125 552.585938 L 475.832031 553.765625 L 475.636719 553.765625 L 470.722656 554.253906 L 90.980469 554.253906 L 86.070312 553.765625 L 85.871094 553.765625 L 81.253906 552.585938 L 81.15625 552.585938 L 81.054688 552.488281 L 76.730469 550.324219 L 76.535156 550.324219 L 72.605469 547.671875 L 72.507812 547.574219 L 72.40625 547.476562 L 69.066406 544.035156 L 68.871094 543.839844 L 66.214844 540.003906 L 66.117188 539.90625 L 66.117188 539.808594 L 63.957031 535.484375 L 63.859375 535.386719 L 63.859375 535.289062 L 62.679688 530.667969 L 62.679688 530.472656 L 62.382812 525.164062 L 62.382812 36.632812 L 62.875 31.71875 L 62.875 31.523438 L 64.054688 26.902344 L 64.054688 26.804688 L 64.152344 26.707031 L 66.316406 22.382812 L 66.316406 22.1875 L 68.96875 18.257812 L 69.066406 18.15625 L 69.164062 18.058594 L 72.507812 14.71875 L 72.605469 14.621094 L 72.703125 14.519531 L 76.632812 11.867188 L 76.832031 11.867188 L 81.15625 9.707031 L 81.253906 9.609375 L 81.351562 9.609375 L 85.96875 8.328125 L 86.167969 8.328125 L 91.082031 8.035156 M 91.082031 10.492188 L 91.082031 9.214844 L 91.179688 10.394531 L 86.265625 10.6875 L 86.167969 9.507812 L 86.460938 10.6875 L 81.84375 11.964844 L 81.546875 10.785156 L 82.136719 11.867188 L 77.8125 14.03125 L 77.222656 12.949219 L 77.910156 13.933594 L 73.980469 16.585938 L 73.292969 15.601562 L 74.175781 16.488281 L 70.835938 19.828125 L 69.949219 18.945312 L 70.933594 19.632812 L 68.28125 23.5625 L 67.296875 22.875 L 68.378906 23.464844 L 66.214844 27.789062 L 65.136719 27.199219 L 66.316406 27.492188 L 65.136719 32.113281 L 63.957031 31.816406 L 65.136719 31.917969 L 64.644531 36.832031 L 63.464844 36.730469 L 64.644531 36.730469 L 64.644531 525.066406 L 63.5625 525.066406 L 64.742188 524.96875 L 65.234375 530.078125 L 64.054688 530.179688 L 65.234375 529.882812 L 66.414062 534.503906 L 65.234375 534.796875 L 66.316406 534.207031 L 68.476562 538.53125 L 67.394531 539.121094 L 68.378906 538.433594 L 71.03125 542.265625 L 70.050781 542.953125 L 70.933594 542.070312 L 74.273438 545.507812 L 73.390625 546.394531 L 74.078125 545.410156 L 78.007812 548.0625 L 77.320312 549.046875 L 77.910156 547.964844 L 82.234375 550.128906 L 81.644531 551.210938 L 81.941406 550.03125 L 86.558594 551.210938 L 86.265625 552.386719 L 86.363281 551.210938 L 91.277344 551.699219 L 91.179688 552.878906 L 91.179688 551.503906 L 470.722656 551.503906 L 470.722656 552.683594 L 470.625 551.503906 L 475.539062 551.011719 L 475.636719 552.191406 L 475.339844 551.011719 L 479.960938 549.832031 L 480.253906 551.011719 L 479.765625 549.929688 L 484.1875 547.769531 L 484.679688 548.851562 L 483.988281 547.867188 L 487.824219 545.214844 L 488.511719 546.195312 L 487.625 545.3125 L 490.96875 541.871094 L 491.851562 542.757812 L 490.871094 542.070312 L 493.621094 538.238281 L 494.605469 538.925781 L 493.523438 538.433594 L 495.488281 534.109375 L 496.570312 534.601562 L 495.390625 534.304688 L 496.667969 529.6875 L 497.847656 529.980469 L 496.667969 529.882812 L 497.160156 524.773438 L 498.339844 524.871094 L 497.160156 524.871094 L 497.160156 36.730469 L 498.339844 36.730469 L 497.160156 36.832031 L 496.667969 31.917969 L 497.847656 31.816406 L 496.667969 32.113281 L 495.390625 27.492188 L 496.570312 27.199219 L 495.488281 27.691406 L 493.523438 23.367188 L 494.605469 22.875 L 493.621094 23.5625 L 490.871094 19.632812 L 491.851562 18.945312 L 490.96875 19.828125 L 487.625 16.488281 L 488.511719 15.601562 L 487.824219 16.585938 L 483.988281 13.933594 L 484.679688 12.949219 L 484.1875 14.03125 L 479.765625 11.867188 L 480.253906 10.785156 L 479.960938 11.964844 L 475.339844 10.6875 L 475.636719 9.507812 L 475.539062 10.6875 L 470.625 10.394531 L 470.722656 9.214844 L 470.722656 10.394531 L 91.082031 10.394531 Z M 91.082031 10.492188 " clip-rule="nonzero"/></clipPath><clipPath id="bdefde6c2a"><path d="M 0.34375 0 L 437.476562 0 L 437.476562 546.386719 L 0.34375 546.386719 Z M 0.34375 0 " clip-rule="nonzero"/></clipPath><clipPath id="f25e20921a"><path d="M 29.082031 0.0351562 L 408.722656 0.0351562 L 413.636719 0.328125 L 413.832031 0.328125 L 418.453125 1.609375 L 418.648438 1.609375 L 423.070312 3.769531 L 423.167969 3.769531 L 423.269531 3.867188 L 427.101562 6.519531 L 427.199219 6.621094 L 430.636719 10.058594 L 430.738281 10.15625 L 430.835938 10.257812 L 433.585938 14.1875 L 433.683594 14.285156 L 433.683594 14.382812 L 435.652344 18.707031 L 435.652344 18.902344 L 436.929688 23.523438 L 436.929688 23.71875 L 437.417969 28.632812 L 437.417969 517.265625 L 436.929688 522.375 L 436.929688 522.570312 L 435.652344 527.191406 L 435.652344 527.386719 L 433.683594 531.710938 L 433.488281 531.90625 L 430.738281 535.738281 L 430.738281 535.839844 L 430.636719 535.9375 L 427.296875 539.375 L 427.199219 539.476562 L 427.101562 539.574219 L 423.269531 542.226562 L 423.167969 542.324219 L 423.070312 542.324219 L 418.648438 544.488281 L 418.550781 544.585938 L 418.453125 544.585938 L 413.832031 545.765625 L 413.636719 545.765625 L 408.722656 546.253906 L 28.980469 546.253906 L 24.070312 545.765625 L 23.871094 545.765625 L 19.253906 544.585938 L 19.15625 544.585938 L 19.054688 544.488281 L 14.730469 542.324219 L 14.535156 542.324219 L 10.605469 539.671875 L 10.507812 539.574219 L 10.40625 539.476562 L 7.066406 536.035156 L 6.871094 535.839844 L 4.214844 532.003906 L 4.117188 531.90625 L 4.117188 531.808594 L 1.957031 527.484375 L 1.859375 527.386719 L 1.859375 527.289062 L 0.679688 522.667969 L 0.679688 522.472656 L 0.382812 517.164062 L 0.382812 28.632812 L 0.875 23.71875 L 0.875 23.523438 L 2.054688 18.902344 L 2.054688 18.804688 L 2.152344 18.707031 L 4.316406 14.382812 L 4.316406 14.1875 L 6.96875 10.257812 L 7.066406 10.15625 L 7.164062 10.058594 L 10.507812 6.71875 L 10.605469 6.621094 L 10.703125 6.519531 L 14.632812 3.867188 L 14.832031 3.867188 L 19.15625 1.707031 L 19.253906 1.609375 L 19.351562 1.609375 L 23.96875 0.328125 L 24.167969 0.328125 L 29.082031 0.0351562 M 29.082031 2.492188 L 29.082031 1.214844 L 29.179688 2.394531 L 24.265625 2.6875 L 24.167969 1.507812 L 24.460938 2.6875 L 19.84375 3.964844 L 19.546875 2.785156 L 20.136719 3.867188 L 15.8125 6.03125 L 15.222656 4.949219 L 15.910156 5.933594 L 11.980469 8.585938 L 11.292969 7.601562 L 12.175781 8.488281 L 8.835938 11.828125 L 7.949219 10.945312 L 8.933594 11.632812 L 6.28125 15.5625 L 5.296875 14.875 L 6.378906 15.464844 L 4.214844 19.789062 L 3.136719 19.199219 L 4.316406 19.492188 L 3.136719 24.113281 L 1.957031 23.816406 L 3.136719 23.917969 L 2.644531 28.832031 L 1.464844 28.730469 L 2.644531 28.730469 L 2.644531 517.066406 L 1.5625 517.066406 L 2.742188 516.96875 L 3.234375 522.078125 L 2.054688 522.179688 L 3.234375 521.882812 L 4.414062 526.503906 L 3.234375 526.796875 L 4.316406 526.207031 L 6.476562 530.53125 L 5.394531 531.121094 L 6.378906 530.433594 L 9.03125 534.265625 L 8.050781 534.953125 L 8.933594 534.070312 L 12.273438 537.507812 L 11.390625 538.394531 L 12.078125 537.410156 L 16.007812 540.0625 L 15.320312 541.046875 L 15.910156 539.964844 L 20.234375 542.128906 L 19.644531 543.210938 L 19.941406 542.03125 L 24.558594 543.210938 L 24.265625 544.386719 L 24.363281 543.210938 L 29.277344 543.699219 L 29.179688 544.878906 L 29.179688 543.503906 L 408.722656 543.503906 L 408.722656 544.683594 L 408.625 543.503906 L 413.539062 543.011719 L 413.636719 544.191406 L 413.339844 543.011719 L 417.960938 541.832031 L 418.253906 543.011719 L 417.765625 541.929688 L 422.1875 539.769531 L 422.679688 540.851562 L 421.988281 539.867188 L 425.824219 537.214844 L 426.511719 538.195312 L 425.625 537.3125 L 428.96875 533.871094 L 429.851562 534.757812 L 428.871094 534.070312 L 431.621094 530.238281 L 432.605469 530.925781 L 431.523438 530.433594 L 433.488281 526.109375 L 434.570312 526.601562 L 433.390625 526.304688 L 434.667969 521.6875 L 435.847656 521.980469 L 434.667969 521.882812 L 435.160156 516.773438 L 436.339844 516.871094 L 435.160156 516.871094 L 435.160156 28.730469 L 436.339844 28.730469 L 435.160156 28.832031 L 434.667969 23.917969 L 435.847656 23.816406 L 434.667969 24.113281 L 433.390625 19.492188 L 434.570312 19.199219 L 433.488281 19.691406 L 431.523438 15.367188 L 432.605469 14.875 L 431.621094 15.5625 L 428.871094 11.632812 L 429.851562 10.945312 L 428.96875 11.828125 L 425.625 8.488281 L 426.511719 7.601562 L 425.824219 8.585938 L 421.988281 5.933594 L 422.679688 4.949219 L 422.1875 6.03125 L 417.765625 3.867188 L 418.253906 2.785156 L 417.960938 3.964844 L 413.339844 2.6875 L 413.636719 1.507812 L 413.539062 2.6875 L 408.625 2.394531 L 408.722656 1.214844 L 408.722656 2.394531 L 29.082031 2.394531 Z M 29.082031 2.492188 " clip-rule="nonzero"/></clipPath><clipPath id="12cbffc978"><rect x="0" width="438" y="0" height="547"/></clipPath><clipPath id="87f0dfa2e4"><path d="M 76 27.925781 L 485 27.925781 L 485 534 L 76 534 Z M 76 27.925781 " clip-rule="nonzero"/></clipPath><clipPath id="786366fb33"><path d="M 282.03125 533.914062 L 78.304688 533.914062 L 77.8125 533.714844 L 77.320312 533.519531 L 77.125 533.027344 L 76.929688 532.734375 L 76.929688 532.242188 L 77.222656 531.75 L 277.902344 281.734375 L 278.101562 281.242188 L 278.296875 280.753906 L 278.101562 280.457031 L 277.902344 280.164062 L 77.320312 30.148438 L 76.929688 29.65625 L 76.929688 29.164062 L 77.125 28.671875 L 77.320312 28.378906 L 77.8125 28.183594 L 78.304688 27.984375 L 282.328125 27.984375 L 282.621094 28.183594 L 282.917969 28.476562 L 484.679688 280.0625 L 484.972656 280.359375 L 484.972656 281.144531 L 484.679688 281.636719 L 283.015625 533.421875 L 282.71875 533.714844 L 282.425781 533.914062 Z M 282.03125 533.914062 " clip-rule="nonzero"/></clipPath><clipPath id="94bed73859"><path d="M 0.730469 0.925781 L 409 0.925781 L 409 507 L 0.730469 507 Z M 0.730469 0.925781 " clip-rule="nonzero"/></clipPath><clipPath id="7474f640cf"><path d="M 206.03125 506.914062 L 2.304688 506.914062 L 1.8125 506.714844 L 1.320312 506.519531 L 1.125 506.027344 L 0.929688 505.734375 L 0.929688 505.242188 L 1.222656 504.75 L 201.902344 254.734375 L 202.101562 254.242188 L 202.296875 253.753906 L 202.101562 253.457031 L 201.902344 253.164062 L 1.320312 3.148438 L 0.929688 2.65625 L 0.929688 2.164062 L 1.125 1.671875 L 1.320312 1.378906 L 1.8125 1.183594 L 2.304688 0.984375 L 206.328125 0.984375 L 206.621094 1.183594 L 206.917969 1.476562 L 408.679688 253.0625 L 408.972656 253.359375 L 408.972656 254.144531 L 408.679688 254.636719 L 207.015625 506.421875 L 206.71875 506.714844 L 206.425781 506.914062 Z M 206.03125 506.914062 " clip-rule="nonzero"/></clipPath><clipPath id="85cb3ec95a"><rect x="0" width="409" y="0" height="507"/></clipPath><clipPath id="88f12ebfb7"><path d="M 75 26 L 487 26 L 487 536 L 75 536 Z M 75 26 " clip-rule="nonzero"/></clipPath><clipPath id="97b2148750"><path d="M 78.304688 26.804688 L 282.03125 26.804688 L 282.03125 27.984375 L 282.03125 26.804688 L 282.621094 26.804688 L 282.917969 26.902344 L 283.210938 27.101562 L 283.40625 27.199219 L 283.507812 27.296875 L 283.800781 27.59375 L 283.800781 27.691406 L 485.660156 279.277344 L 484.679688 280.0625 L 485.5625 279.179688 L 485.855469 279.476562 L 486.25 279.867188 L 486.25 280.652344 L 485.070312 280.652344 L 486.25 280.652344 L 486.25 281.539062 L 486.054688 281.832031 L 485.757812 282.324219 L 283.898438 534.207031 L 283.898438 534.304688 L 283.605469 534.601562 L 283.507812 534.699219 L 283.308594 534.796875 L 283.015625 534.992188 L 282.71875 535.09375 L 282.128906 535.09375 L 282.128906 533.914062 L 282.128906 535.09375 L 78.109375 535.09375 L 77.910156 534.992188 L 77.421875 534.796875 L 76.929688 534.601562 L 76.339844 534.402344 L 76.140625 533.8125 L 75.945312 533.324219 L 77.125 532.929688 L 76.042969 533.519531 L 75.847656 533.222656 L 75.75 532.929688 L 75.75 531.945312 L 75.945312 531.652344 L 76.242188 531.160156 L 276.921875 280.949219 L 277.902344 281.734375 L 276.726562 281.34375 L 276.921875 280.851562 L 278.101562 281.242188 L 276.921875 280.851562 L 277.117188 280.359375 L 278.296875 280.753906 L 277.214844 281.34375 L 277.019531 281.046875 L 278.101562 280.457031 L 277.019531 281.046875 L 276.824219 280.753906 L 277.902344 280.164062 L 276.921875 280.949219 L 76.339844 30.933594 L 76.042969 30.441406 L 75.847656 30.148438 L 75.847656 28.96875 L 75.945312 28.773438 L 76.140625 28.28125 L 76.140625 28.082031 L 76.339844 27.789062 L 76.535156 27.296875 L 77.027344 27.101562 L 77.519531 26.902344 L 77.910156 28.082031 L 77.519531 26.902344 L 78.007812 26.707031 L 78.207031 26.609375 L 78.402344 26.609375 M 78.402344 29.066406 L 78.402344 28.082031 L 78.796875 29.261719 L 78.304688 29.460938 L 77.8125 29.65625 L 77.421875 28.476562 L 78.5 29.066406 L 78.304688 29.359375 L 77.125 28.671875 L 78.304688 29.066406 L 78.109375 29.558594 L 76.929688 29.164062 L 78.109375 29.164062 L 78.109375 29.65625 L 76.929688 29.65625 L 77.910156 28.96875 L 78.207031 29.460938 L 77.222656 30.148438 L 78.207031 29.359375 L 278.789062 279.277344 L 278.886719 279.375 L 278.984375 279.476562 L 279.183594 279.769531 L 279.378906 280.0625 L 279.574219 280.554688 L 279.183594 281.539062 L 278.984375 282.03125 L 278.789062 282.421875 L 78.207031 532.535156 L 77.222656 531.75 L 78.207031 532.4375 L 77.910156 532.929688 L 76.929688 532.242188 L 78.109375 532.242188 L 78.109375 532.734375 L 76.929688 532.734375 L 78.007812 532.144531 L 78.207031 532.4375 L 78.207031 532.636719 L 78.402344 533.125 L 77.222656 533.519531 L 77.617188 532.339844 L 78.109375 532.535156 L 77.714844 533.714844 L 78.109375 532.535156 L 78.597656 532.734375 L 78.207031 533.914062 L 78.207031 532.734375 L 282.328125 532.734375 L 282.328125 533.914062 L 281.738281 532.832031 L 282.03125 532.636719 L 282.621094 533.714844 L 281.738281 532.832031 L 282.03125 532.535156 L 282.917969 533.421875 L 281.933594 532.636719 L 483.792969 280.949219 L 484.777344 281.734375 L 483.792969 281.046875 L 484.089844 280.554688 L 485.070312 281.242188 L 483.890625 281.242188 L 483.890625 280.457031 L 485.070312 280.457031 L 484.1875 281.34375 L 483.890625 281.046875 L 483.890625 280.949219 L 282.03125 29.261719 L 283.015625 28.476562 L 282.128906 29.359375 L 281.835938 29.066406 L 282.71875 28.183594 L 282.128906 29.261719 L 281.835938 29.066406 L 282.425781 27.984375 L 282.425781 29.164062 L 78.304688 29.164062 Z M 78.402344 29.066406 " clip-rule="nonzero"/></clipPath><clipPath id="f189c43421"><path d="M 0.53125 0.375 L 411.289062 0.375 L 411.289062 509.203125 L 0.53125 509.203125 Z M 0.53125 0.375 " clip-rule="nonzero"/></clipPath><clipPath id="2bc5bf55f3"><path d="M 3.304688 0.804688 L 207.03125 0.804688 L 207.03125 1.984375 L 207.03125 0.804688 L 207.621094 0.804688 L 207.917969 0.902344 L 208.210938 1.101562 L 208.40625 1.199219 L 208.507812 1.296875 L 208.800781 1.59375 L 208.800781 1.691406 L 410.660156 253.277344 L 409.679688 254.0625 L 410.5625 253.179688 L 410.855469 253.476562 L 411.25 253.867188 L 411.25 254.652344 L 410.070312 254.652344 L 411.25 254.652344 L 411.25 255.539062 L 411.054688 255.832031 L 410.757812 256.324219 L 208.898438 508.207031 L 208.898438 508.304688 L 208.605469 508.601562 L 208.507812 508.699219 L 208.308594 508.796875 L 208.015625 508.992188 L 207.71875 509.09375 L 207.128906 509.09375 L 207.128906 507.914062 L 207.128906 509.09375 L 3.109375 509.09375 L 2.910156 508.992188 L 2.421875 508.796875 L 1.929688 508.601562 L 1.339844 508.402344 L 1.140625 507.8125 L 0.945312 507.324219 L 2.125 506.929688 L 1.042969 507.519531 L 0.847656 507.222656 L 0.75 506.929688 L 0.75 505.945312 L 0.945312 505.652344 L 1.242188 505.160156 L 201.921875 254.949219 L 202.902344 255.734375 L 201.726562 255.34375 L 201.921875 254.851562 L 203.101562 255.242188 L 201.921875 254.851562 L 202.117188 254.359375 L 203.296875 254.753906 L 202.214844 255.34375 L 202.019531 255.046875 L 203.101562 254.457031 L 202.019531 255.046875 L 201.824219 254.753906 L 202.902344 254.164062 L 201.921875 254.949219 L 1.339844 4.933594 L 1.042969 4.441406 L 0.847656 4.148438 L 0.847656 2.96875 L 0.945312 2.773438 L 1.140625 2.28125 L 1.140625 2.082031 L 1.339844 1.789062 L 1.535156 1.296875 L 2.027344 1.101562 L 2.519531 0.902344 L 2.910156 2.082031 L 2.519531 0.902344 L 3.007812 0.707031 L 3.207031 0.609375 L 3.402344 0.609375 M 3.402344 3.066406 L 3.402344 2.082031 L 3.796875 3.261719 L 3.304688 3.460938 L 2.8125 3.65625 L 2.421875 2.476562 L 3.5 3.066406 L 3.304688 3.359375 L 2.125 2.671875 L 3.304688 3.066406 L 3.109375 3.558594 L 1.929688 3.164062 L 3.109375 3.164062 L 3.109375 3.65625 L 1.929688 3.65625 L 2.910156 2.96875 L 3.207031 3.460938 L 2.222656 4.148438 L 3.207031 3.359375 L 203.789062 253.277344 L 203.886719 253.375 L 203.984375 253.476562 L 204.183594 253.769531 L 204.378906 254.0625 L 204.574219 254.554688 L 204.183594 255.539062 L 203.984375 256.03125 L 203.789062 256.421875 L 3.207031 506.535156 L 2.222656 505.75 L 3.207031 506.4375 L 2.910156 506.929688 L 1.929688 506.242188 L 3.109375 506.242188 L 3.109375 506.734375 L 1.929688 506.734375 L 3.007812 506.144531 L 3.207031 506.4375 L 3.207031 506.636719 L 3.402344 507.125 L 2.222656 507.519531 L 2.617188 506.339844 L 3.109375 506.535156 L 2.714844 507.714844 L 3.109375 506.535156 L 3.597656 506.734375 L 3.207031 507.914062 L 3.207031 506.734375 L 207.328125 506.734375 L 207.328125 507.914062 L 206.738281 506.832031 L 207.03125 506.636719 L 207.621094 507.714844 L 206.738281 506.832031 L 207.03125 506.535156 L 207.917969 507.421875 L 206.933594 506.636719 L 408.792969 254.949219 L 409.777344 255.734375 L 408.792969 255.046875 L 409.089844 254.554688 L 410.070312 255.242188 L 408.890625 255.242188 L 408.890625 254.457031 L 410.070312 254.457031 L 409.1875 255.34375 L 408.890625 255.046875 L 408.890625 254.949219 L 207.03125 3.261719 L 208.015625 2.476562 L 207.128906 3.359375 L 206.835938 3.066406 L 207.71875 2.183594 L 207.128906 3.261719 L 206.835938 3.066406 L 207.425781 1.984375 L 207.425781 3.164062 L 3.304688 3.164062 Z M 3.402344 3.066406 " clip-rule="nonzero"/></clipPath><clipPath id="b2c05803a6"><rect x="0" width="412" y="0" height="510"/></clipPath></defs><g clip-path="url(#706a7ed1d3)"><g clip-path="url(#4ace748852)"><g transform="matrix(1, 0, 0, 1, 63, 9)"><g clip-path="url(#3ddfee8a1f)"><g clip-path="url(#b7b72e51cf)"><g clip-path="url(#8d572ea13e)"><rect x="-186.75" width="810" fill="#ff7021" height="809.999974" y="-132.749996" fill-opacity="1"/></g></g></g></g></g></g><g clip-path="url(#d3b7daadd8)"><g clip-path="url(#746fa0493b)"><g transform="matrix(1, 0, 0, 1, 62, 8)"><g clip-path="url(#12cbffc978)"><g clip-path="url(#bdefde6c2a)"><g clip-path="url(#f25e20921a)"><rect x="-185.75" width="810" fill="#ff7021" height="809.999974" y="-131.749996" fill-opacity="1"/></g></g></g></g></g></g><g clip-path="url(#87f0dfa2e4)"><g clip-path="url(#786366fb33)"><g transform="matrix(1, 0, 0, 1, 76, 27)"><g clip-path="url(#85cb3ec95a)"><g clip-path="url(#94bed73859)"><g clip-path="url(#7474f640cf)"><rect x="-199.75" width="810" fill="#000000" height="809.999974" y="-150.749996" fill-opacity="1"/></g></g></g></g></g></g><g clip-path="url(#88f12ebfb7)"><g clip-path="url(#97b2148750)"><g transform="matrix(1, 0, 0, 1, 75, 26)"><g clip-path="url(#b2c05803a6)"><g clip-path="url(#f189c43421)"><g clip-path="url(#2bc5bf55f3)"><rect x="-198.75" width="810" fill="#000000" height="809.999974" y="-149.749996" fill-opacity="1"/></g></g></g></g></g></g></svg>